<?xml version="1.0" encoding="utf-8"?>
<!-- Generator: Adobe Illustrator 17.0.0, SVG Export Plug-In . SVG Version: 6.00 Build 0)  -->
<!DOCTYPE svg PUBLIC "-//W3C//DTD SVG 1.1//EN" "http://www.w3.org/Graphics/SVG/1.1/DTD/svg11.dtd">
<svg version="1.1" id="Layer_1" xmlns="http://www.w3.org/2000/svg" xmlns:xlink="http://www.w3.org/1999/xlink" x="0px" y="0px"
	 width="285.504px" height="238.667px" viewBox="0 0 285.504 238.667" enable-background="new 0 0 285.504 238.667"
	 xml:space="preserve">
<g>
	<g>
		<g>
			<defs>
				<path id="SVGID_1_" d="M241.043,15.738l-0.487-1.535l-1.256-2.162l-1.045-0.558l-1.046,0.558l-0.627,1.256l-0.07,0.139h-0.21
					l-1.95,0.349c-0.21,0.14-0.419,0.21-0.559,0.419l-0.419,0.488l-1.046,0.837l-0.278,0.14l-0.906,0.14
					c-0.418-0.069-1.045-0.418-1.882-1.046l-0.07-0.07c-1.394-1.395-2.091-2.371-2.091-2.929V9.809l0.21-0.349l-2.022-0.696
					l-0.07,0.696c0,0.209-0.209,0.488-0.558,0.698l-0.698,0.279l-0.278-0.069v-0.071l-1.046-0.209l0.21,0.767l-1.813-1.186h-0.07
					l-0.07-0.071c-0.279-0.767-0.419-1.533-0.419-2.37c0-0.698,0.07-1.117,0.349-1.396l0.419-0.767l-0.139-0.627l-1.814,0.278
					c-0.906,0.07-1.533,0.628-1.882,1.674v0.07l-1.046,1.605l1.046-0.07h0.07l0.07-0.069l0.071,0.14l0.835,0.348h0.14l0.138,0.07
					v0.209l0.139,1.465l0.419,1.395v0.209l-2.301,4.534c-0.417,0.627-0.627,2.301-0.766,4.811v0.21l-0.907,1.744l0.627,0.698v0.139
					c0.07,1.046,0,1.673-0.278,1.813l-0.209,0.07c-0.488,0.28-2.09,1.953-4.67,5.092l-0.209,0.21l-0.139-0.07l-0.209-0.14
					c-0.906-0.627-1.742-1.185-2.23-1.744c-0.418-0.278-1.465-0.488-3.207-0.488l-0.069,3.208l-0.07,0.069l-1.254,6.068
					c-0.279,0.768-0.349,2.163-0.349,4.255l0.488,0.627l0.419-0.837h0.07l0.07-0.139l1.603-0.837l4.46,0.697l0.488-0.557
					l0.627-1.117l0.139-0.069l0.07-0.07l1.743-0.349l2.3-0.139c0.697,0.139,1.534,1.046,2.579,2.441
					c2.789,1.395,4.322,2.65,4.671,3.766c0.209,0.558,0.209,0.977,0,1.465c-0.209,0.487-0.696,0.767-1.393,0.836h-0.071
					c-3.415-0.139-5.368-0.139-6.065,0.07l-1.672,1.116c-2.092,1.534-3.486,2.301-4.252,2.301l-1.394,0.21l-0.837,3.487
					c-0.209,1.046-0.558,1.744-1.185,2.232c-0.557,0.558-1.393,0.906-2.509,1.116c-1.325,0.209-2.439,0.698-3.485,1.325
					l-1.185,2.511l-0.07,0.07h-0.139l-3.206,1.325h-0.209l-1.602-0.348c-1.255-0.21-2.232-0.558-2.859-0.977
					c-0.836-0.419-1.742-0.488-2.718-0.21c-0.836,1.186-1.254,2.651-1.185,4.255c0.07,0.837,0.279,1.395,0.488,1.535l0.489-0.069
					l0.558-0.349l0.14,2.233c0,0.766-0.28,1.324-0.837,1.743c-0.349,0.279-0.976,0.558-1.883,0.836l-0.557,0.14
					c-0.697,0.279-2.162,2.162-4.322,5.579v0.07h-0.069l-2.092,1.256c0.349,0,0.558,0.139,0.488,0.418
					c-0.07,0.279-0.278,0.348-0.836,0.419l-5.925-0.14c-6.623-0.21-11.781,1.605-15.475,5.371l-0.07,0.069l-0.139,0.07h-0.069
					l-2.44,0.28l-0.14,0.069h-0.139l-0.697-1.674l-2.509,0.627c-1.325,0.07-3.067-0.279-5.019-1.256
					c-1.812-0.767-3.415-1.812-5.02-3.068c-1.045-0.837-2.369-1.396-3.903-1.674l-2.23-0.21l-2.51,0.35
					c-1.812,0.278-3.625,0.278-5.298,0.139c-2.021-0.139-4.461-0.697-7.389-1.604l-0.209,0.419h0.139l0.07,0.069v0.07l0.069,0.698
					l0.628,1.325l1.463,1.815l0.07,0.208l-0.278,1.325v0.071h-0.07l-0.837,1.115l0.907,0.907c0.349,0.349,0.557,0.627,0.557,0.907
					l0.21,1.325l1.046,1.047v0.14l0.139,0.906v0.697l0.628,0.489l0.418-0.14l0.07-0.21c0.209-0.557,0.557-0.837,1.045-0.906
					l0.558-0.209l3.695-0.349l1.464-0.559l0.139-0.069l0.21-0.14l0.767,1.674h0.069c0.071,0.418,0,0.767-0.208,1.116l-2.022,2.861
					l0.139,0.487l0.907,0.907l0.906,0.558h0.071c0.418,0.558,0.766,0.906,1.184,1.046c0.488,0.14,0.976,0.558,1.395,1.116
					l0.069,0.208l0.697,0.279l0.209,0.07h0.07l0.21,0.767l0.07,0.767l0.279,1.117l1.742,0.278h0.14l0.069,0.071v0.069l0.559,1.116
					l1.394,0.488l0.976-0.488l-0.14-0.557l-0.905-0.838l0.139-0.139v-0.14l0.767-1.465h1.673l0.069,0.07l2.37,0.837l1.325-0.21
					l1.046-0.977c1.185-1.465,1.951-2.092,2.439-1.743l0.558-0.07c0.627,0,0.975,0.07,1.185,0.14
					c0.069,0.14,0.139,0.279,0.139,0.419c0,0.278,0.279,0.835,0.697,1.603v0.14l0.21,0.976v0.21l-0.278,1.116v0.07l-0.071,0.069
					l-1.185,1.395l-0.07,0.069l-2.509,1.116l-0.349,0.698l-0.348,2.023l0.21,0.977l0.627,1.046l0.278,0.209l0.837,0.558h2.928
					l2.439-0.349l0.348-0.349c0.349-0.418,0.697-0.558,0.906-0.558l1.673,0.278l0.14-0.278c-0.14-0.488-0.14-0.907,0.14-1.326
					l0.697-1.185v-2.302l1.255-3.627l0.07-0.069v-0.07h0.069v-0.07l2.161-1.744l0.139-0.14l1.883,0.837
					c0.976,0.697,1.464,1.255,1.464,1.604l-0.139,1.534l-0.627,0.977l-0.487,1.395v1.534l0.487,0.698l0.627-0.071l0.139-0.069
					l1.046,0.069c0.558,0.28,0.907,0.769,1.185,1.466l0.627,0.209h0.141l2.369,1.116l1.046,0.349l1.464-0.209l0.627-0.838
					l0.837-3.417l0.069-1.884v-0.14l0.14-0.069l0.071-0.071l1.324-1.116l0.766-0.977l0.07-0.069l1.394-0.629l0.836-0.488
					l1.046-0.418l-0.557-2.092l2.37,0.28v0.069l1.254,0.488v-0.07l0.349-1.324v-0.21l0.21,0.07H185l1.115,0.279h0.559l1.046-1.186
					h0.069l0.07-0.07h0.07l1.395-0.279l1.185-1.117l0.627-0.906v-1.115c0-0.419,0.209-0.698,0.628-0.907h0.209l1.325,0.139
					l0.557-0.348l0.209-0.977l1.394-0.418h0.14l1.743,0.21l1.394-0.349l0.836-0.836l0.558-1.117l-1.046-1.116v-0.069l-0.209-0.838
					l-0.279-1.255v-0.069l0.628-1.116c0-0.348,0.208-0.837,0.766-1.395l0.767-1.534v-0.07h0.07l0.697-1.116l1.045-2.093l0.976,1.395
					l0.07,0.07v0.07l0.349,1.396v0.069l0.209,1.396l0.977,0.418h0.069l0.279,0.14l0.07-0.071l0.836-1.464l0.488-1.395l0.209,0.07
					l0.21,0.07l2.021,0.698l0.976-0.768l0.07-0.07h0.139l0.976-0.07l0.697-1.185v-1.465l0.488-2.233l0.139,0.07h0.209l1.533,0.348
					l0.697-1.255h0.21l1.395-0.139h0.209v0.069l0.14,0.07l0.697,0.976v0.07l0.07,0.069v0.14l0.138,1.396l0.697,0.627l0.976-0.906
					l0.21,0.279c0.349,0.348,0.487,0.697,0.487,1.115v1.255l-0.487,1.257l0.349,0.558l0.697,0.767l2.927,0.419l0.071,0.069
					l0.139,0.07l0.209,0.209l0.837-1.185h0.07l0.697-0.698l-0.28-1.046l-0.766-4.464l2.021,0.977h0.139l0.907,1.116l0.558,0.557
					l0.837-0.557l2.927-3.208h0.071l1.046-0.768l1.184-1.674l0.07-0.14l1.602,0.419h0.768c0-0.628,0.139-1.047,0.209-1.325
					l1.185-1.395l0.349-0.21l1.394,0.488l1.673-0.209l1.115-1.186l0.557-1.046l-0.348-0.558l-0.976,0.489l-0.069-0.07l-0.07-0.07
					l-1.254-1.115l-0.069-0.07l0.488-1.883l0.138-1.395l-0.348-1.185l-0.976-0.349v-0.07l-0.07-0.07l-0.069-0.069l-0.837-1.675
					l-0.139-0.209l-1.184,1.396l-1.186,0.767l-0.279,0.139l-0.069-0.07l-0.07-0.14l-1.254-1.186V59.33l-0.906-1.954v-0.069
					l-0.418-1.395v-2.163l-0.139-1.255l-0.977-0.349H232.4v-0.069l-2.23-1.744l0.138-0.21l1.046-1.115v-0.139h0.14l1.185-0.14h0.071
					c0.348,0,0.697,0.209,0.976,0.558l0.976,0.766l1.046-0.836l0.766-1.047v-0.907l-0.279-2.232l-0.209-0.907l-1.534-0.279v-0.907
					l-1.394-1.743l-0.07-0.071l-0.697-1.255l-0.139-0.14v-0.14l1.534-2.023v-0.07l0.07-0.07v-0.07h0.139l0.627-0.069l0.767-0.627
					l0.906-2.791h0.069v-0.07l1.116-1.255v-0.069h0.139l1.255-0.35v0.139l0.835,0.698l0.28,0.071l0.488-2.163l-0.488-1.535
					l-0.07-0.07v-0.139l0.209-1.743v-0.139l0.837-0.907l0.558-0.976l0.069-0.837c0-0.418-0.208-1.116-0.627-2.162V20.62l0.349-1.465
					c-0.279-0.627-0.488-1.115-0.488-1.464L241.043,15.738"/>
			</defs>
			<clipPath id="SVGID_2_">
				<use xlink:href="#SVGID_1_"  overflow="visible"/>
			</clipPath>
			<rect x="114.127" y="-0.561" clip-path="url(#SVGID_2_)" fill="#E4E4E3" width="134.425" height="116.225"/>
		</g>
	</g>
	<g>
		<g>
			<defs>
				<path id="SVGID_3_" d="M115.433,76.348l-1.394,0.419l-0.21,0.279l-0.209,1.952v2.163l-0.21,0.069l-1.324,0.489v0.069
					l-1.254,0.071c-0.628,0.348-1.325,0.697-2.091,0.975l-0.14,0.071h-0.069l-2.37-0.558l-0.976,1.047
					c-0.209,0.278-0.696,0.558-1.323,0.697l-1.464,1.186l-0.767,1.186v0.07l-0.069,0.069c-0.418,0.629-0.767,1.116-1.046,1.326
					l-0.836,1.046v0.069l-0.07,0.069l-0.488,0.349c-0.349,0.14-0.697,0.21-0.976,0.21l-1.743-0.14l-0.418,0.627l-0.627,1.116
					l0.279,1.115l-0.139,2.72l0.486,0.838v0.069l0.209,0.629h0.976l1.673,0.348l2.161,0.139l0.975-0.139h0.21l1.881,0.697h0.07
					l0.976,0.767l2.091,0.766h0.07l1.393,0.837l3.416,3.139l1.534,0.697l0.627-0.278l0.627-1.186l-0.348-1.884
					c0-0.557,0.419-0.907,1.255-1.255l0.139-0.071l4.253,2.512l0.487-0.14l0.977-0.558h0.139l0.558,0.069l0.836-0.698l0.14-0.069
					l0.209,0.14l2.508,1.744l0.07,0.069l1.604,1.325c0.417,0.278,0.975,0.767,1.463,1.465l0.767,0.837l0.627-0.07l0.697-1.325
					l1.464,1.046h0.14l1.184,1.464l3.137,2.372l0.907,1.047l2.719-0.768l0.138,2.023l1.185,1.186v0.07l0.976,1.465v0.209
					l1.046,4.811l1.046,1.954l-1.395,3.556v0.21l-1.184,0.279v1.046l-0.069,0.069l-1.186,1.953h-0.139l-1.673,0.14l-1.673,1.394
					c0.21,0.21,0.489,0.349,0.976,0.558c0.698,0.211,0.767,0.768,0.418,1.743v0.071l-1.184,1.186h-0.07l-0.07,0.139h-0.139
					l-3.346-0.488l-0.07,1.185l0.348,2.511l2.788,1.186v0.139l1.046-0.348l0.071-0.07l0.139-0.069l0.069,0.139h0.07l0.767,0.419
					h1.185l0.418-0.071l-0.418-1.325l-0.279-1.395v-0.208l0.069-0.071v-0.069l0.419-0.488l0.14-0.14l0.069-0.07l0.766-1.047
					l0.07-0.071l1.255-0.975h0.069v-0.071h0.071l1.533-0.208v0.419c0,0.487,0.07,0.836,0.14,1.046l0.278,0.627l0.418,0.907
					l1.394,0.768l3.834,0.349h0.348v0.349l-0.139,1.255l1.116,1.186l0.835,0.349l0.139,0.07v0.07l0.07,0.139v1.186l-0.348,1.394
					l0.487,0.349c0.173-0.022,0.339-0.037,0.5-0.037c0.36,0,0.697,0.075,1.034,0.316l1.603,0.766l0.975-0.766l1.046-1.117
					l0.07-0.487l0.07-0.14l0.139-0.071l0.14-0.139v-0.14l-0.349-1.464l-0.07-0.767l-0.069-0.069v-0.071l0.069-0.069v-0.071
					l0.558-0.906l0.07-0.07l1.115-0.768h2.371l0.348-0.139l-0.07-1.186l-0.349-1.046l-0.767-1.256l-0.069-0.07v-1.883l0.418-1.047
					l0.07-0.069l1.882-2.72l0.07-0.07h0.069l0.14-0.069h0.418l0.696,0.069l1.604,0.906l1.046,0.279l0.139-0.488l-0.21-0.14v-0.209
					c0-0.418,0.21-0.767,0.628-1.115l1.254-0.908l0.07-0.069v-0.07c0.697-0.209,1.116-0.348,1.394-0.348l1.116-0.14h0.139
					l0.697,0.14l0.488-1.744v-1.185c0-0.768,0-1.256,0.21-1.396l0.488-0.906l-0.628-0.837l-0.836-0.558l-1.743-0.488
					c-0.349,0-0.977-0.349-2.022-1.256l-1.045-0.488h-0.07l-0.07-0.071l-1.255-1.533h-1.185l-0.07-0.071h-0.07l-1.045-0.557
					l-0.628,0.837l-0.14,3.278l0.21,1.255h0.488l0.07,0.069l0.975,0.279v0.14l0.488,1.185h0.07v0.14l-0.279,2.162v0.209l-0.07,0.07
					c-0.348,0.209-0.626,0.348-0.975,0.558l-0.14,0.07l-0.069-0.07h-0.07l-0.488-0.139l-1.116,0.418h-0.069l0.069,0.209l0.071,0.07
					l0.209,1.882c0,0.279-0.139,0.419-0.418,0.489h-0.836c-0.419-0.07-0.628-0.21-0.837-0.418l-0.835-0.628l-0.07-0.07h-0.071v-0.07
					l-0.487-1.185c-0.14-0.14-0.489-0.349-1.185-0.559h-0.14l-0.977-0.697h-0.139v-0.139l-0.279-1.185l0.14-0.907h0.07v-0.071
					l0.418-0.488v-0.349l-0.418-1.255l-0.975-0.907v-0.14l-0.279-2.859l-0.697-0.697h-0.07l-0.069-0.071l-0.559-1.325l-2.509-0.279
					c-0.628-0.209-1.046-0.627-1.325-1.186h-1.116c-0.417-0.139-0.836-0.418-1.324-0.906l-0.139-0.14
					c-0.279-0.279-0.558-0.698-0.836-1.256l-0.07-0.069l-0.209-1.117v-0.139l0.418-2.162v-0.069l0.418-0.907v-0.14h0.071
					l2.648-1.117l1.046-1.255l0.209-1.046l-0.14-0.767c-0.418-0.906-0.697-1.465-0.697-1.814l-0.557,0.07l-0.977-0.07
					c-0.209,0.07-0.766,0.697-1.533,1.605l-1.185,1.115h-0.07l-0.07,0.07c-0.654,0.151-1.162,0.266-1.525,0.266
					c-0.141,0-0.26-0.017-0.357-0.056l-2.299-0.838h-1.116l-0.348,0.767l0.627,0.628v0.14l0.279,0.906l0.069,0.07v0.209
					l-0.139,0.071l-1.533,0.767l-0.071,0.07h-0.139c-1.185-0.14-1.812-0.489-2.022-0.977l-0.418-0.837l-2.091-0.418l-0.558-2.651
					c-0.417-0.071-0.766-0.279-0.975-0.559l-0.071-0.139c-0.348-0.488-0.627-0.767-1.045-0.837
					c-0.557-0.209-1.046-0.628-1.464-1.255l-0.836-0.489h-0.07l-1.116-1.117l-0.279-0.975v-0.071l2.231-3.069
					c0.07-0.209,0.139-0.348,0.07-0.418l-0.418-0.976l-1.186,0.488h-0.07v0.069h-0.069l-3.067,0.21l-1.185,0.278l-0.418,0.418
					l-0.21,0.419c-0.219,0.274-0.523,0.462-0.949,0.462c-0.116,0-0.241-0.014-0.376-0.044l-0.069-0.069l-1.046-0.768l-0.07-1.743
					c-0.558-0.418-0.907-0.838-1.046-1.186l-0.279-1.534l-0.697-0.837l-0.766-0.628l-0.349-0.21l1.254-1.605l0.279-0.906
					l-1.395-1.743h-0.069v-0.07l-0.628-1.395v-0.069l-0.139-0.698l-0.908-0.697v-0.071l-0.975-1.046L115.433,76.348"/>
			</defs>
			<clipPath id="SVGID_4_">
				<use xlink:href="#SVGID_3_"  overflow="visible"/>
			</clipPath>
			<rect x="90.357" y="71.348" opacity="0.7" clip-path="url(#SVGID_4_)" fill="#FE9A00" width="89.465" height="77.305"/>
		</g>
	</g>
	<g>
		<g>
			<defs>
				<path id="SVGID_5_" d="M161.09,101.317l-1.253,3.487v2.371l-0.697,1.186l-0.14,0.837c0.14,0.487-0.07,0.906-0.558,1.185
					l-0.139,0.071h-0.07l-0.07-0.071l-1.742-0.209l-0.906,0.836l-2.648,0.418h-1.116l0.698,0.489l2.508,0.279h0.279l0.069,0.069
					v0.07l0.628,1.534l0.698,0.488c0.208,0.28,0.348,0.698,0.348,1.465l0.068,1.882l0.836,0.768h0.071v0.069h0.069l0.418,1.395
					v0.768l-0.488,0.698l-0.14,0.627l0.209,0.698l0.837,0.558c0.907,0.348,1.395,0.559,1.604,0.907l0.488,1.046
					c0.557,0.279,0.836,0.558,0.975,0.837l0.627,0.21h0.07l-0.279-1.535c-0.07-0.348-0.07-0.698,0.07-0.837
					c0.139-0.209,0.279-0.349,0.558-0.418l1.045-0.349l0.07-0.07h0.07l0.07,0.07l0.488,0.139l0.628-0.349v-0.138l0.208-1.744
					l-0.419-0.838l-0.557-0.279l-0.696-0.07h-0.14l-0.139-0.07l-0.279-1.813l0.069-3.556l0.14-0.14l1.045-1.465l1.534,0.837h0.906
					l0.697-4.534c-0.209-0.488-0.419-0.836-0.837-1.046l-0.418-0.069v0.069h-0.21l-1.115,0.21l-0.068-0.139l-0.07-0.071
					l-0.767-0.976v-0.071l-0.07-0.069v-1.743l0.279-0.978l0.278-0.418c0-0.279,0.07-0.558,0.349-0.906l0.279-0.349l0.068-1.185
					l-1.045-0.977l-1.395-0.697L161.09,101.317"/>
			</defs>
			<clipPath id="SVGID_6_">
				<use xlink:href="#SVGID_5_"  overflow="visible"/>
			</clipPath>
			<rect x="146.75" y="94.713" clip-path="url(#SVGID_6_)" fill="#E4E4E3" width="25.963" height="36.574"/>
		</g>
	</g>
	<g>
		<g>
			<defs>
				<path id="SVGID_7_" d="M113.481,76.208l0.07-0.07h0.07v-0.069l-2.231-6.347l-1.394-1.116v-0.14l-0.349-2.582l-2.927-0.418
					h-0.209v-0.07l-0.07-0.139v-0.07c-0.348-0.977-1.255-2.023-2.648-3.139c-0.767-0.627-1.534-1.046-2.162-1.186
					c-0.487-0.279-0.976-0.488-1.324-0.767c-0.906-0.628-4.043-1.116-9.55-1.256h-0.209l-0.628-0.977
					c-0.279-0.627-0.488-1.186-0.558-1.813c0-0.768,0.907-3.278,2.858-7.394l-0.976-3.069l-1.046-4.881
					c-0.14-0.698-1.324-1.327-3.415-1.954c-0.419-0.14-0.837-0.279-1.256-0.559c-0.766-0.348-1.325-0.975-1.603-1.743
					c-0.418-0.907-1.115-1.673-2.091-2.092l-0.071-0.07l-0.069-0.069l-0.836-4.324l-3.346,0.349l-0.348,0.907
					c-0.419,1.465-0.836,2.161-1.325,2.161l-2.16,0.697c-1.325,0.489-2.162,1.047-2.578,1.675c-0.21,0.279-0.419,1.116-0.558,2.231
					c-0.209,1.256-0.418,2.162-0.697,2.72c-0.418,0.907-1.046,1.605-2.022,1.953c-1.812,0.698-4.879-0.488-9.132-3.487l-5.715,7.324
					l0.697,3h0.069l0.07,0.138l-0.139,0.07v0.07c-0.279,0.418-0.697,0.697-1.186,0.768c-0.557,0.139-1.115-0.071-1.742-0.489
					c-0.557-0.418-2.161-0.766-4.739-0.906l-1.185-0.07l-1.742-0.139l-1.883,0.349l0.836,1.184c0.697,0.907,0.975,1.465,0.907,1.814
					l-0.767,4.534l0.349,2.441h0.069v0.069l-0.069,0.071l-1.395,4.534c-0.07,0.418-0.209,0.627-0.348,0.558h-0.14v-0.071
					l-0.209-0.418c-0.279-0.558-0.418-0.767-0.627-0.697c-0.139,0.069-0.348,0.348-0.418,0.976c-0.279,1.256-1.045,2.301-2.23,3.417
					l-1.255,0.977l-0.627,0.348h-0.07l-4.53,0.069l-1.743,1.674h-0.279l-4.81-0.698c-0.766,0.837-1.533,1.116-2.3,0.977
					c-0.697-0.21-1.883,0.07-3.554,0.698l-1.952,2.302l-0.07,0.139l-3.066,0.07v-2.581h-1.953l-0.348,1.116L9.132,73.07h-0.14
					L8.922,73h-0.07c-0.906-0.558-2.021-0.977-3.137-1.116c-0.627-0.07-1.394,0.348-2.51,1.325
					c-1.185,0.977-2.021,1.883-2.439,2.721c0.209,0.14,0.349,0.419,0.349,0.837c0.139,0.488,0.209,0.907,0.209,1.464
					c-0.069,0.558-0.278,0.906-0.558,1.186C0.418,79.626,0.209,80.254,0,81.369l1.115,0.768l1.533-1.605l1.952,2.163v0.138
					l0.418,3.836v0.07h-0.07l-1.116,5.301H3.554c-1.603,0-2.648,0.07-3.067,0.349c0.07,0.349,0.768,0.906,1.953,1.675l0.975-0.14
					h0.209l0.07,0.069l2.301,2.232c0.905,0.768,0.836,2.093-0.348,4.045l0.348,2.163l0.905,0.209h3.556l-1.813,1.674l1.046,0.558
					l1.393,0.767l3.764,1.603l0.07,0.071h0.139l0.348,5.719c0.07,1.116,0.906,1.953,2.58,2.511l0.279-0.14h0.139l3.903,0.557h0.278
					v-0.068l0.071-0.14c0.417-0.767,0.697-1.324,0.697-1.464v-0.14c-0.071-0.628,0.209-1.186,0.766-1.604
					c0.558-0.419,0.906-0.837,1.115-1.326l0.07-0.07c0.209-0.556,0.906-0.696,2.091-0.348h0.069l1.325,0.767l4.391,0.837
					l2.719-0.208l1.953-0.838c0.348-0.488,0.627-0.697,0.836-0.837c0.349-0.069,0.836,0.071,1.394,0.557l0.279,0.14
					c0.279,0.209,0.488,0.628,0.767,1.395l1.395,1.047h1.324l1.464,0.628l2.718-0.209l1.534-0.489l3.974,0.349l1.743-0.489
					l2.021-0.837c0.418-0.278,0.907-0.488,1.604-0.697h3.834l1.394-0.489c0.557-0.348,1.046-0.557,1.464-0.557h2.23l1.045,0.768
					l2.998,0.627c0.418,0,0.836,0.348,1.534,0.977l1.255,0.837l0.139,0.138l2.858,0.071h0.07l1.324,0.697l1.742,0.348h0.071
					l1.464,0.21l0.418-0.837l-0.628-1.396l-0.278-1.394v-0.07h-0.071l0.209-0.209l0.976-1.325v-0.07h0.07v-0.07l0.975-0.698
					l-0.209-0.418l-0.417-1.395c0-0.209-0.209-0.348-0.627-0.628l-1.046-1.115l-1.325-1.116l-0.07-0.139l-0.139-0.071l0.069-0.069
					v-0.14l0.209-1.326v-0.976l-0.626-1.675l1.602-0.349l0.767-0.767h1.952l1.952-0.279h0.069l1.325,0.14l1.533-0.558l1.743-0.208
					l1.115-0.489h0.07l2.998-0.558l0.488-0.488l-0.14-0.558l-0.558-0.977V95.25l-0.069-0.071V95.11l0.14-1.045l0.069-0.071v-1.464
					l-0.279-1.255v-0.071l0.697-1.395c0.279-0.627,0.627-0.975,1.046-0.975l1.812,0.14c0.279,0,0.627-0.14,0.976-0.419l2.718-3.697
					v-0.069l0.07-0.071l1.464-1.186l0.14-0.139c0.556-0.14,0.905-0.349,1.115-0.488l0.348-0.348
					c0.487-0.628,0.906-0.906,1.185-0.906l2.37,0.488l2.022-0.977h0.139l1.186-0.139l0.975-0.419v-1.605l0.279-2.022v-0.14
					l0.349-0.558V76.208"/>
			</defs>
			<clipPath id="SVGID_8_">
				<use xlink:href="#SVGID_7_"  overflow="visible"/>
			</clipPath>
			<rect x="-5" y="24.896" clip-path="url(#SVGID_8_)" fill="#E4E4E3" width="123.62" height="96.067"/>
		</g>
	</g>
	<g>
		<g>
			<defs>
				<path id="SVGID_9_" d="M115.851,100.062l-0.628,0.488c0,0.279,0.139,0.907,0.348,1.814v0.07l0.07,0.07h-0.07l-0.766,1.743
					l-1.046,0.419l-0.21,0.07h-0.07l-1.812-0.838H111.6v-0.069l-3.417-3.139l-1.324-0.768l-2.091-0.767v-0.07h-0.07l-0.976-0.696
					l-1.743-0.559l-0.975,0.07h-0.071l-2.229-0.14h-0.069l-1.604-0.348h-0.976l-0.766,0.558c-0.418,0.209-0.976,0.279-1.673,0.419
					l-1.464,0.278l-1.254,0.418l-0.07,0.07v0.069v-0.069l-1.534,0.14l-1.604,0.627h-0.208l-1.325-0.139l-2.021,0.278h-1.673
					l-0.697,0.698h-0.069l-0.836,0.209l0.348,0.837v1.325l-0.21,1.186l1.185,0.976h0.07l0.976,1.117
					c0.627,0.487,0.906,0.835,0.906,1.254l0.348,1.047l0.488,1.047c-0.07,0-0.07,0.069-0.139,0.069l-1.324,0.977l-0.905,1.186
					l0.208,1.046l0.628,1.465l0.069,0.14v0.069l-0.139,0.557c-0.14,0.348-0.279,0.628-0.488,0.768c-0.419,0.348-1.116,0.348-2.231,0
					l-1.742-0.348h-0.14l-1.255-0.628l-2.022-0.07l0.07,0.07l-0.208,3.487c-0.07,0.489-0.418,0.697-0.907,0.768
					c-0.209,0.069-0.349,0.349-0.278,0.907v0.069h-0.071l-0.139,0.907c0.488,0.419,0.836,0.768,0.977,1.047l0.348,1.673v0.628
					c-0.07,0.349-0.139,0.627-0.279,0.906l-0.488,1.395l-0.906,1.743v0.35l0.139,0.837l0.907,1.185
					c0.279,0.348,0.418,0.558,0.488,0.767l0.836,1.186l1.254,1.395c0.488,0.488,0.838,0.698,0.976,0.698l1.325-0.837
					c0.279-0.21,0.487-0.35,0.835-0.35c0.28,0,0.697,0.21,1.325,0.628h0.069v0.07l0.697,0.837l0.348,0.836l0.279,0.348l0.21,0.14
					l0.905,0.628l0.488,0.07c0.278,0.07,0.557,0.279,0.766,0.558c0.139,0.21,0.907,0.488,2.23,0.837h0.07l2.092,0.768h0.139
					l1.464,0.698l2.509,0.627l0.071,0.07l3.276,0.139l1.464-0.558h1.324v0.071l0.07,0.069l1.116,1.395v0.069l0.696,1.117
					l0.559,0.626l0.767,0.349l0.069,0.07l0.07,0.07l0.627,1.395v0.07h0.07v0.069l0.349,1.535l0.975,0.348h0.14l0.768,0.489
					l1.046-0.21l0.279-1.046v-0.069l0.069-0.07l1.184-1.186l1.325,0.348v0.14l0.628,1.395l1.325-0.487l0.138-1.326v-0.14l0.07-0.069
					l0.907-0.488l-0.21-1.953v-0.209l1.046-2.163l1.046-0.418l-0.418-1.952h1.046l-0.07-0.907l-0.558-1.884v-0.139l0.139-1.326
					v-0.209l0.14-0.07l0.697-0.906l0.139-0.14h0.21l1.883,0.349h0.07l1.534,0.418l1.324-0.418l0.766,1.534l0.07,0.07v1.115
					l0.209,1.046c0.139,0.419,0.418,0.698,0.697,0.768h0.139c0.628,0.14,0.977,0.418,1.046,0.837
					c0.07,0.349,0.348,0.836,0.837,1.394l0.627,0.907v0.07l0.419,0.767l0.627-0.07l1.185-1.047l0.766,1.605l1.534,0.489h0.07
					l0.069,0.07l0.767,1.394l0.349,0.209l0.069-1.325v-0.279l3.068-0.07l0.069-0.279c0.07-0.14,0.07-0.419-0.069-0.628
					c-0.21-0.418-0.279-0.768-0.349-1.256c-0.069-0.558,0-0.977,0.14-1.116c0.21-0.279,0.348-0.279,0.697-0.209l1.255,0.419
					l0.139-0.908l-2.3-1.046h-0.139l-0.071-0.139v-0.14l-0.348-2.789l0.07-1.744v-0.348l3.834,0.488l0.975-0.908
					c0.21-0.349,0.14-0.627,0-0.697c-0.975-0.348-1.464-0.767-1.464-1.185c0-0.211,0.07-0.489,0.418-0.628l1.604-1.604l1.742-0.071
					l0.907-1.533v-1.466l1.324-0.278c0.348-1.047,0.558-1.605,0.696-1.814l0.559-1.186l-0.976-1.744v-0.139l-0.628-2.371v-0.07
					l-0.418-2.441l-0.836-1.394l-1.254-1.257v-0.139l-0.069-0.07l-0.069-1.324l-2.301,0.696l-0.069-0.07l-1.046-1.185l-3.136-2.372
					h-0.07l-1.185-1.534l-0.766-0.489l-0.488,0.768v0.139l-0.07,0.069h-0.208l-0.977,0.07l-0.139,0.07h-0.071l-2.299-2.511
					c-0.489-0.209-0.977-0.697-1.674-1.395l-1.046-0.766l-0.07-0.071l-1.184-0.697l-0.697,0.559l-0.07,0.138l-0.069-0.069h-0.07
					l-0.627-0.14l-0.697,0.348l-0.07,0.071l-0.069,0.069h-0.071l-0.975,0.14C118.57,101.666,117.245,100.899,115.851,100.062"/>
			</defs>
			<clipPath id="SVGID_10_">
				<use xlink:href="#SVGID_9_"  overflow="visible"/>
			</clipPath>
			<rect x="68.609" y="92.412" clip-path="url(#SVGID_10_)" fill="#E4E4E3" width="80.752" height="60.845"/>
		</g>
	</g>
	<g>
		<g>
			<defs>
				<path id="SVGID_11_" d="M119.964,134.309l-1.604-0.489l-1.672-0.209l-0.557,0.627l-0.14,1.186l0.07,0.069l0.487,1.814
					l0.07,1.395v0.418h-0.836l0.349,1.674l-1.325,0.489l-0.558,1.046l0.697,0.558l0.14,0.069l2.439,1.952l0.07,0.07h0.069v0.14
					l0.349,1.744l1.115,1.604c0.278,0.418,0.628,0.837,1.254,1.395h0.07l0.07,0.069v0.071l-0.07,0.139v1.535
					c0.21,0.418,0.279,1.325,0.279,2.65c0.627,0.908,0.907,1.534,0.907,1.953c0,0.279,0.208,0.836,0.557,1.604v0.069
					c0.14,0.977,0.07,1.814-0.139,2.512c-0.21,0.488,0.069,1.395,0.836,2.651l0.07,0.069l0.07,0.14l-0.07,0.139l-1.116,2.441
					c0.21,0.558,0.279,0.976,0.279,1.256l-0.279,2.302c-0.139,0.767-0.139,1.186,0.21,1.325l0.418,0.279
					c0.627,0.279,0.836,0.628,0.836,0.976l-0.07,1.186l0.348,0.14l0.071,0.069l0.209-0.209c0.209-0.21,0.418-0.489,0.488-0.838
					l0.139-0.209l0.07-0.139c0.279-0.14,0.418-0.349,0.627-0.628c0.07-0.418,0.07-0.837-0.069-1.325l-0.14-0.348l0.348-0.071
					c1.116-0.278,1.743-0.208,1.953,0.28l0.557,1.395v0.14l0.279,2.301l0.907,0.489h0.139l0.558,0.488l0.557-0.628l0.628-0.489h0.21
					c0.487,0.14,0.766,0.489,0.906,0.977l0.279,1.813l0.071,0.279l1.882,4.045l0.766,0.767l0.069,0.07v0.07l0.349,1.674l0.14,1.604
					l0.069,0.14c0.488-0.697,0.906-1.046,1.185-0.907c0.278,0.07,0.348,0.21,0.348,0.487v2.024c0.348,0.07,0.628,0,0.697-0.209
					l0.697-0.977l0.768-0.767c0.488-0.349,0.975-0.628,1.533-0.628h0.07l1.464,0.349l0.419-0.209l0.767-0.976l-0.14-1.535
					c-0.487-0.837-0.697-1.535-0.557-2.022l0.209-1.255v-0.14l0.07-0.14l1.324-0.767h0.071l0.974-0.628l1.116-1.604l0.14-1.186
					l-1.256-2.929l2.789,1.255v-1.255l1.045-0.907l2.022-0.557h0.139l1.185,2.58v0.14l-0.14,0.976l0.14,0.907
					c0.139,0.419,0.419,0.629,0.627,0.629c0.279,0,0.558-0.21,0.837-0.558l0.069-0.14h0.07l1.673-0.558h0.07
					c0.907,0,1.324,0.209,1.533,0.627l0.139,1.884v0.07l0.349,0.07l0.697,0.209l1.046-0.07l1.742-0.487l1.046-0.907l0.07-0.768
					l-0.488-0.558l-1.812-0.627l-0.14-0.07v-0.07l-2.092-2.092l0.21-0.14l1.046-0.907l0.069-0.071l1.045-0.418h0.21l1.394,0.279
					h0.07l0.069,0.07v-0.558l-0.628-1.046l-0.975-0.488l-1.325-1.953l-0.07-0.071v-0.069l-0.627-2.301v-1.744l1.115-1.046h1.673
					l3.905,0.348l1.811-2.581v-0.14h0.139l1.464-0.767l0.767-1.535l0.07-0.07l1.743-1.465l0.836-1.535v-0.07h0.07v-0.069
					l0.697-0.697l0.836-1.395l0.279-2.163v-0.209l0.069-0.07l1.115-0.767l0.279-0.279l-1.674-0.279l-2.788,0.139l-0.069-0.07
					l-1.046-0.837h-0.14v-0.07l-0.556-0.837l-0.14,0.07l-0.071,0.14c-0.139,0.21-0.487,0.279-0.905,0.279l-0.419,0.209
					c-0.139,0.071-0.209,0.14-0.419,0.071c-0.139,0-0.208-0.209-0.348-0.558c-0.07-0.348-0.209-0.698-0.628-1.046l-0.07-0.07v-0.069
					h-0.069l-0.349-0.906h-0.278l-1.046,0.697l-0.069,0.069h-0.07l-2.44,0.488h-0.139l-0.14-0.07l-1.603-1.116l-0.07-0.069v-0.07
					h-0.07l-0.418-0.837l-1.185,1.256c-0.836,0.976-1.464,1.256-1.882,0.976l-1.603-0.837l-1.115-0.14l-0.14,0.07l-1.045-0.767
					l-0.069-0.07l-0.209-0.07l0.488-1.883v-0.628l-0.628-0.279h-0.07l-1.464-1.604l0.069-1.186l-3.624-0.348l-1.395-0.768
					c-0.348-0.209-0.628-0.627-0.837-1.324l-0.208-0.488l-0.278-1.046l-0.49,0.069l-1.115,0.907l-1.325,1.604l0.279,1.187
					l0.417,1.534v0.071h0.07l-0.07,0.069v0.071c-0.139,0.417-0.557,0.627-1.185,0.627h-1.393l-0.837-0.418l-1.046,0.418l-0.21,0.07
					l-0.139-0.07l-0.14,0.976l-0.069,0.14v0.209h-0.21l-1.743-0.558c0,0.558,0.07,0.977,0.349,1.465
					c0.209,0.489,0.279,0.837,0.07,1.256l-0.209,0.558c-0.21,0.209-0.837,0.278-1.743,0.209h-1.185l-0.071,1.953l-1.533-0.558h-0.07
					l-0.07-0.071l-0.768-1.464l-1.672-0.558l-0.419-0.907l-0.627,0.488h-0.071l-1.046,0.21h-0.278l-0.558-1.256l-0.558-0.767
					l-0.07-0.071c-0.557-0.697-0.836-1.324-0.976-1.673c0-0.071-0.139-0.209-0.487-0.279l-0.279-0.069
					c-0.488-0.21-0.836-0.629-1.046-1.256l-0.279-1.186v-0.977l-0.488-0.906l-0.835,0.28H119.964"/>
			</defs>
			<clipPath id="SVGID_12_">
				<use xlink:href="#SVGID_11_"  overflow="visible"/>
			</clipPath>
			<rect x="109.248" y="127.983" clip-path="url(#SVGID_12_)" fill="#E4E4E3" width="71.272" height="63.731"/>
		</g>
	</g>
	<g>
		<g>
			<defs>
				<path id="SVGID_13_" d="M26,111.5v0.069c-0.279,0.629-0.767,1.046-1.325,1.535c-0.418,0.209-0.558,0.558-0.558,0.977v0.209
					c0,0.349-0.209,0.906-0.766,1.743l-0.071,0.348c-0.139,0.21-0.418,0.349-0.905,0.349l-3.973-0.489v0.07l-0.278,0.907v0.07
					l-0.071,0.069c-1.046,1.465-1.743,2.511-1.812,3.208c-0.071,0.35,0.348,1.604,1.254,3.766l0.628,1.465
					c0.278,0.698,0.069,1.535-0.558,2.441l-1.255,1.256H14.22l-0.418-2.302l-0.558,2.859l0.906,1.395c0.07,0.209,0.07,0.348,0,0.419
					l-0.139,0.139c-0.278,0.21-0.697,0.908-1.115,2.093c-0.419,1.046-0.21,2.092,0.627,3.209h1.673
					c0.557,0.14,1.394,1.047,2.579,2.651l0.07,0.14c0,0.488,0.209,0.837,0.558,1.116l3.694,3.418v0.069l1.673,2.093h0.976
					l1.046-1.884l0.139-0.139l0.07-0.071l2.579,0.629v0.209l0.348,1.744l3.066,3.556l1.046,0.419l0.07,0.07l0.487,0.279l0.071,0.07
					l2.3,3.418l1.883-0.279h0.209l0.139,0.14l0.07,0.14l1.603,3.348l1.952,1.185l1.603,0.419l0.766,2.163h1.185l0.07,0.069
					l2.509,1.396v0.069l0.07,0.07l1.813,2.233l2.648-0.489h0.14l0.976,0.418h0.07l1.672,1.466l2.998,0.208l1.811-0.279
					c2.441-0.418,3.975-0.209,4.532,0.418c0.348,0.558,0.139,1.116-0.697,1.814l-0.697,0.697c-0.208,0.349,0.07,0.907,0.977,1.744
					l0.069,0.139h-0.069l0.558,0.418l0.209-0.209c1.743-3.278,3.137-5.091,4.113-5.44c1.046-0.349,3.206,0.558,6.622,2.651
					l4.183,0.767l-0.07,0.14v0.14l-0.21,1.952l2.091,0.279l-0.069,2.651c0.627,1.186,1.115,1.883,1.394,2.093
					c0.418,0.279,2.509,0.279,6.204,0l2.161-1.116l2.091-2.929l2.439-0.071l1.185-0.348l4.601-2.65h0.069l0.07-0.07
					c2.649-0.279,4.183-0.349,4.601,0l2.997,2.511l0.906,0.348l0.14,0.14l1.185,0.488l0.07,0.07v-0.418l0.487-2.092
					c-0.209-0.629-0.209-1.117,0-1.535c0.139-0.348,0.488-0.558,1.046-0.698c1.046-0.209,2.021,0.698,2.996,2.651l0.14,0.07h0.07
					l1.743-0.767c0.348-0.07,0.488-0.418,0.488-0.768l-0.348-1.255v-0.071c-0.139-0.558,0-1.046,0.558-1.255l0.628-0.488
					l1.532-1.673l1.046-2.302c-0.906-1.465-1.185-2.511-0.906-3.209l0.209-1.952c-0.418-0.837-0.627-1.395-0.627-1.884
					c0-0.209-0.278-0.836-0.836-1.673h-0.07v-0.209l-0.209-2.511c-0.07-0.418-0.139-0.976,0-1.673
					c-0.628-0.489-1.046-0.977-1.324-1.465l-1.047-1.395l-0.07-0.07v-0.209l-0.348-1.744l-1.046-0.837v0.071l-2.021-1.604v0.139
					l0.279,2.162v0.278l-1.046,0.489l-0.139,1.325v0.209l-2.439,0.976l-0.836-1.953l-0.488-0.139l-0.766,0.767l-0.487,1.395
					l-1.743,0.488l-0.976-0.698l-1.394-0.419l-0.419-1.952l-0.557-1.186l-0.837-0.349l-0.071-0.139l-0.627-0.768l-0.627-1.116
					l-0.976-1.255h-0.837l-1.394,0.487l-0.071,0.07l-3.554-0.209l-2.719-0.559c-0.209-0.139-0.697-0.348-1.464-0.836l-2.091-0.698
					c-1.604-0.419-2.51-0.768-2.72-1.185l-0.349-0.21l-0.487-0.14l-1.255-0.698l-0.139-0.07c-0.209-0.279-0.418-0.488-0.558-0.767
					l-0.278-0.629l-0.558-0.835l-0.907-0.419l-0.348,0.209l-0.349,0.279l-0.208,0.139c-0.348,0.279-0.697,0.418-0.977,0.488
					c-0.558,0.139-1.115-0.14-1.743-0.836l-1.324-1.396c-0.488-0.628-0.836-1.117-0.976-1.465l-0.349-0.558
					c-0.487-0.488-0.836-0.976-1.046-1.395c-0.208-0.627-0.278-1.186-0.069-1.744v-0.069l0.907-1.535l0.487-1.604l0.21-1.046
					l-0.349-1.604l-1.046-0.907l0.209-1.325c0-0.977,0.348-1.465,1.046-1.604c0.209-0.071,0.348-0.21,0.279-0.489v-0.07l0.069-1.396
					v-1.673h-0.139l-0.069-0.07l-0.279-0.139v-0.069h-0.07l-1.255-0.837h-0.07l-0.976-0.837l-3.275-0.628l-1.045-0.767h-1.953
					c-0.279,0-0.627,0.209-1.115,0.488h-0.069l-1.534,0.559H59.11c-0.557,0.139-1.046,0.279-1.324,0.558
					c-0.419,0.349-1.185,0.627-2.231,0.976l-1.812,0.419v0.069h-0.139l-2.58-0.279l-0.208-0.071l0.07,0.071l-0.07-0.071
					l-0.906-0.069l-1.534,0.488l-3.066,0.279h-0.07l-0.069-0.07l-1.534-0.557h-1.254c-0.558-0.14-1.185-0.559-1.883-1.396
					l-0.07-0.14c-0.139-0.628-0.348-0.907-0.418-1.047l-0.349-0.209l-0.626-0.349l-0.558,0.558l-0.07,0.14l-2.231,0.907h-0.209
					l-2.719,0.279c-0.418,0-1.185-0.209-2.23-0.488l-2.371-0.419H28.58l-1.395-0.767H26"/>
			</defs>
			<clipPath id="SVGID_14_">
				<use xlink:href="#SVGID_13_"  overflow="visible"/>
			</clipPath>
			<rect x="7.686" y="106.291" clip-path="url(#SVGID_14_)" fill="#E4E4E3" width="119.508" height="76.54"/>
		</g>
	</g>
	<g>
		<g>
			<defs>
				<path id="SVGID_15_" d="M121.218,166.67l-1.115,1.256l-0.766,0.558l-0.209,0.487c0.278,0.629,0.419,1.117,0.419,1.465
					c0,0.698-0.348,1.256-0.976,1.465l-1.256,0.488l-0.348,0.209l-0.07,0.489v1.953c0.07,0.628,0.14,0.976,0.349,0.976
					c0.182,0.092,0.378,0.143,0.576,0.143c0.255,0,0.513-0.086,0.749-0.282l0.418-0.209l1.325,3.068v0.21
					c-0.488,5.51-0.977,8.648-1.604,9.485c-0.278,0.279-0.488,0.418-0.906,0.488c-0.489,0-0.837-0.071-1.325-0.349
					c-1.811,3.628-2.997,5.51-3.554,5.789h0.069c-0.279,0.07-0.418,0.977-0.348,2.581l0.418,0.348l0.139,0.14l0.14,0.139
					l-0.628,0.768l-0.279,0.907c0.418,0,0.976-0.279,1.534-0.698l0.069-0.07h0.139l2.788-0.348l1.813-0.907l0.697,0.976l0.14,0.07
					l-0.837,1.326l0.976,0.976v0.279l-0.698,2.93l1.812,1.325l3.277,0.139l-0.488,0.628c-2.092,2.581-3.068,4.116-2.998,4.603
					l1.255,0.28c1.672,0.14,2.648,0.628,2.996,1.255c0.418,0.837,0.837,1.674,1.185,2.65l1.882,1.046l1.185,0.21l2.439-2.093
					l1.255,1.883v0.07l0.07,0.07l0.417,1.743l1.047,0.209l1.604,0.559l0.418-0.14v-0.07l-0.279-1.813l-0.07-0.069l-0.906-4.116
					v-0.14l0.558-2.86l0.14,0.069h0.209l1.882,0.14l2.37-1.744l0.21,0.14c1.254,0.976,2.09,1.743,2.508,2.301
					c0.418-0.14,1.185-0.907,2.231-2.092l0.07-0.07l0.139-0.14l3.485,0.907l1.534-1.255l0.07-0.071l0.069-0.07h0.07l0.069,0.07
					l1.465,0.279l4.74-4.185l1.463,0.418l0.07,0.07l0.14,0.14l0.348,0.628l0.348-0.419h0.07v-0.07h0.069l1.394-0.767l1.045-0.977
					l-0.279-2.162l-0.209-0.279l-1.324,0.558c-0.419,0.139-0.768,0.279-1.256,0.279h-1.534c-0.488-0.07-0.766-0.209-0.975-0.489
					l-0.139-2.231c-0.488-0.279-0.698-0.419-0.907-0.419l-0.348,0.14l-0.488,0.279l-0.976,0.209h-0.279l-0.068-0.14l-0.558-0.976
					l-0.07-0.906l0.557-2.651h0.071v-0.069l0.626-1.325l-1.952-1.744l-0.07-0.07l-0.069-0.07v-2.023l0.069-0.07l1.116-3.209
					l-0.697-1.744l-0.628-0.139l-0.768,0.07l-0.766,1.186l-0.976-0.697l-0.975-0.558l-0.768-1.953l-0.278-1.395v-0.139l-0.071-0.069
					l0.21-0.14l0.907-1.256l0.209-0.14h0.07l0.697-0.139l0.767-0.209l3.625-0.139h0.07l0.488,0.209l0.139,0.071l0.558,0.209
					l0.977-0.419l0.836-0.627l0.419-0.698l0.07-0.349l-0.07-1.534l-0.768-0.14l-1.464,0.489c-0.418,0.488-0.906,0.837-1.394,0.837
					c-0.487,0-0.906-0.419-1.324-1.186h-0.07v-0.069l-0.07-0.977v-0.14l0.07-0.906l-0.767-1.883l-1.464,0.419l-0.627,0.558
					l0.209,2.092l-2.301-1.046l0.559,1.255l0.069,0.07v0.14l-0.209,1.394v0.14h-0.07l-1.324,1.883l-2.161,1.325l-0.208,1.257
					c-0.07,0.209,0.208,0.766,0.557,1.464l0.07,0.07v0.07l0.139,1.814v0.209l-0.069,0.071l-0.838,1.114l-0.069,0.071h-0.069
					l-0.628,0.418h-0.279l-1.602-0.349c-0.279,0-0.628,0.14-0.977,0.418l-0.697,0.767l-0.558,0.698
					c-0.268,0.483-0.619,0.677-1.116,0.677c-0.148,0-0.31-0.017-0.487-0.049c-0.488-0.069-0.627-0.558-0.488-1.186v-0.488
					l-0.069-0.488l-0.279,0.348c-0.209,0.28-0.418,0.349-0.697,0.349c-0.279-0.069-0.488-0.349-0.628-0.837v-0.07l-0.139-1.604
					l-0.349-1.535l-0.697-0.698l-0.069-0.071l-1.463-3.348l-0.071-0.069l-0.419-0.977v-0.069h-0.069v-0.071l-0.279-1.812
					l-0.209-0.28l-0.278,0.209c-0.489,0.558-0.837,0.907-0.977,0.907c-0.21,0-0.558-0.28-1.115-0.697l-1.045-0.489l-0.14-0.069
					l-0.07-0.07v-0.069l-0.07-0.14l-0.069-1.395l-0.21-1.046l-0.557-1.395h-0.558c0.069,0.558,0,1.047-0.14,1.395
					c-0.14,0.419-0.418,0.697-0.837,1.046c-0.139,0.489-0.348,0.837-0.627,1.116c-0.23,0.231-0.44,0.334-0.651,0.334
					c-0.173,0-0.346-0.069-0.534-0.195l-0.209-0.07c-0.419-0.14-0.488-0.628-0.419-1.535v-0.348l-0.905-0.557
					c-0.349-0.14-0.558-0.558-0.628-1.187l0.349-3.138L121.218,166.67"/>
			</defs>
			<clipPath id="SVGID_16_">
				<use xlink:href="#SVGID_15_"  overflow="visible"/>
			</clipPath>
			<rect x="107.435" y="161.67" opacity="0.7" clip-path="url(#SVGID_16_)" fill="#FE9A00" width="59.492" height="61.683"/>
		</g>
	</g>
	<g>
		<g>
			<defs>
				<path id="SVGID_17_" d="M170.012,165.903l-0.07,0.07l-0.21,0.697v0.977l-0.069,0.07l-0.07,0.069l-0.836,1.116l-0.139,0.14
					h-0.139l-1.673-0.14h-0.14v0.14l-0.558,0.767l0.209,0.488h0.07l-0.488,0.767h-1.533v-0.279l-0.14-0.14l-0.21-0.14l-0.279,0.488
					l-0.07,0.21h-1.046l-0.07-0.07l-0.627-0.488l-0.069-0.14v-0.07h-0.07v-0.14l-1.115-0.209l-0.836,0.349l-0.489,0.349l1.395,1.604
					l1.812,0.558l0.07,0.07l0.07,0.07l0.907,0.837l-0.349,1.395v0.209h-0.07l-1.185,0.976v0.07h-0.07l-1.952,0.557h-0.07
					l-1.115,0.139h-0.139l-0.768-0.279l-0.417-0.069l-0.419,0.698h-0.068v0.069l-0.907,0.628h-0.07l-1.255,0.557h-0.07l-1.464-0.488
					l-3.206,0.14l-0.697,0.209l-0.07,0.071h-0.627l-0.767,1.046l0.139,1.185l0.697,1.604l0.766,0.418h0.071v0.07l0.279,0.209
					l0.488-0.698l0.07-0.07l0.069-0.07h0.07l1.046-0.139h0.14v0.071l1.046,0.278l1.045,2.371h-0.07v0.07l-0.418,1.325l-0.349,0.837
					v0.07l-0.486,1.185v1.464l0.835,0.837h0.07l1.115,0.978l0.14,0.069l0.069,0.07l-0.836,1.953l-0.21,0.906l0.279-0.14h0.07
					l0.696-0.279l1.256-0.698h0.069l1.394,0.21h0.07l2.091,0.837h2.3l0.627-0.837l0.07-0.07l0.07-0.07l1.185-0.558l1.116-0.976
					l0.14-0.069l0.836-0.279l0.907-0.698l1.046-1.395l1.463,0.558l0.21,0.07v0.07l0.07,0.069c0.209,0.559,0.418,0.837,0.628,0.907
					l0.906-0.14h0.21l0.487,0.14h0.07v0.07l1.185,0.418h0.347l0.07-0.279l0.139-0.419v-0.07l0.07-0.069l0.07-0.071v-0.069
					l0.418-0.28l0.069-0.069l0.767-0.629h0.07l0.069-0.069h0.139l0.698,0.069c0-0.418,0.21-0.837,0.628-1.255
					c0.425-0.303,0.743-0.501,0.957-0.501c0.032,0,0.061,0.004,0.088,0.013l0.418-0.279h0.07v-0.07l0.348-0.349v-0.069h0.07
					l0.069-0.07h0.07l1.115-0.278h0.628l0.279-0.21l0.209-0.419l0.349-0.698l-0.139-0.069c-0.418-0.488-0.697-1.046-0.836-1.814
					l-0.071-0.069h0.071v-0.069l0.278-1.535c0-0.488,0.14-0.837,0.488-1.186l-0.14-1.255c-0.07-0.139-0.209-0.279-0.558-0.348
					l-2.23,0.906l0.139-2.302c0.07-0.348,0.766-0.977,2.091-1.744l-0.627-2.441c-0.139-0.837,0.07-1.466,0.627-2.022l-0.14-0.418
					h-0.697l-0.209,0.069l-0.348,0.976c-0.279,0.348-0.559,0.558-0.837,0.558h-0.14l-0.697-0.489h-0.138v-0.209l-0.21-0.488
					l-0.07-0.697v-0.07l-0.069,0.14l-0.07,0.21h-1.254l-0.14-0.279l-0.21-0.768v-1.046l-0.767-1.325v-1.116l-0.279-0.488
					l-0.488-0.209l-0.557,0.348l-0.348,0.627c-0.279,0.628-0.559,0.976-1.047,0.976c-0.278,0-0.627-0.209-0.836-0.418l-0.07-0.069
					l-0.069-0.07l-0.209-0.698v-0.07l-0.07-0.906L170.012,165.903"/>
			</defs>
			<clipPath id="SVGID_18_">
				<use xlink:href="#SVGID_17_"  overflow="visible"/>
			</clipPath>
			<rect x="142.846" y="160.903" opacity="0.7" clip-path="url(#SVGID_18_)" fill="#FE9A00" width="43.459" height="38.945"/>
		</g>
	</g>
	<g>
		<g>
			<defs>
				<path id="SVGID_19_" d="M188.276,184.525l0.07,0.07l0.139,0.14l-0.906,1.395c-0.349,0.418-0.837,0.698-1.395,0.698h-0.14
					l-0.696-0.419l-0.698,0.07l-1.395,1.046c-0.348,0.14-0.766-0.209-1.394-1.046l-0.417,0.907h-0.07l-0.07,0.069l-0.488,0.489
					h-0.906l-0.906,0.279l-1.115,0.837h-0.348l-0.419,0.278c-0.349,0.349-0.488,0.629-0.279,0.907l0.486,0.697l-1.951-0.209
					l-1.046,0.838l-0.14,0.348v0.07l-0.21,0.558l-0.07,0.069l-0.07,0.07h-0.975l-1.254-0.487l-0.419-0.07l-0.976,0.139
					c-0.419,0-0.907-0.489-1.324-1.255l-0.837-0.349l-0.697,1.046h-0.071l-0.976,0.837h-0.07v0.069h-0.139l-0.766,0.209
					l-1.116,0.977l-1.185,0.558l-0.836,1.116h-2.788l-2.162-0.837l-1.185-0.14l-1.045,0.558h-0.07l-0.697,0.279
					c-0.348,0.139-0.628,0.348-0.836,0.419l-0.139,0.348v0.837l0.348,0.558l1.673-0.558c0.349,0,0.836,0.209,1.465,0.558
					l0.139,0.069l0.07,0.07l0.068,2.371l0.349,0.07h1.464l0.907-0.209l0.139-0.139c0.558-0.28,1.046-0.488,1.673-0.558l0.279-0.07
					l0.139,0.209l0.418,0.837v0.07l0.21,2.301v0.209l-1.255,1.326h-0.07v0.069l-1.463,0.697l-0.489,0.558l0.21,0.419l2.997,0.279
					l0.07,0.07l0.07,0.07l1.185,0.697l2.648-0.069v0.349l0.14,1.325v0.14h0.07l-1.185,1.186c-0.14,1.535,0.139,2.441,0.766,2.651
					l2.232,1.185l1.742,1.186l1.464-0.698l0.139-0.07l0.14-0.07l0.069,0.07l2.231,1.674l0.348,0.14l0.558-0.697l0.14-0.14
					l0.07-0.071h0.139l1.325,0.21l0.279-2.302l1.673,2.999l1.394,0.07l0.209,0.069h0.14v1.046l0.558-0.139l2.3-3.069l0.976,1.465
					v-0.628l0.697-1.395l0.627-1.046h1.742l0.279-1.953h0.21l0.139,0.069l1.325,0.209l0.138-0.697l-0.487-1.116v-0.139l0.279-0.767
					v-0.14l0.07-0.07h0.069v-0.07l3.625-1.953l-0.14-1.883v-0.07l0.697-1.395l0.14-0.279l1.116-2.581l0.069-0.068l0.906-0.908
					l0.558-1.046v-0.14l0.489-0.836l-0.419-1.047v-0.069h-0.07v-1.117h-0.558l-1.046,0.489c-0.488,0.349-1.185,0.209-2.09-0.349
					c-0.349-0.279-0.349-0.977-0.14-2.023l-0.558-0.07l-0.279,0.348c-0.627,0.698-1.116,1.116-1.255,1.116
					c-0.14,0-0.21,0-0.349-0.07c-0.069-0.209-0.209-0.558-0.209-1.115c0-0.628,0-1.046,0.209-1.186
					c0.139-0.209,0.279-0.28,0.418-0.14l1.325-2.441l0.349-0.906l0.21-1.046l-0.767-0.628c-0.209-0.21-0.279-0.698-0.139-1.396
					v-0.418c0-0.21-0.139-0.488-0.418-0.697h-0.139l-0.07,0.209c-0.208,0.557-0.697,0.837-1.463,0.627
					C189.182,184.386,188.764,184.386,188.276,184.525"/>
			</defs>
			<clipPath id="SVGID_20_">
				<use xlink:href="#SVGID_19_"  overflow="visible"/>
			</clipPath>
			<rect x="148.283" y="178.69" clip-path="url(#SVGID_20_)" fill="#E4E4E3" width="53.706" height="43.408"/>
		</g>
	</g>
	<g>
		<g>
			<defs>
				<path id="SVGID_21_" d="M184.094,152.163l-0.488-1.115l-0.767-1.117l-0.837-0.209h-0.07v-0.07h-0.069l-0.697-0.349h-0.139
					l-0.279,0.07l-0.907,0.14h-0.07l-0.139-0.07l-0.907-0.349v-0.069h-0.07v-0.069l-1.463-1.465l-0.697-0.417l-0.767,0.696
					l-0.976,0.698l-0.278,2.093v0.069l-0.907,1.535v0.14h-0.07L172.801,153l-0.836,1.604l-0.07,0.14
					c-0.627,0.489-1.185,0.977-1.743,1.395l-0.697,1.256c-0.14,0.348-0.697,0.767-1.742,1.186l-0.697,1.186l-1.185,1.604h-0.069
					v0.069h-0.139l-5.576-0.349l-0.627,0.628v1.187l0.557,2.301l1.186,1.674l0.975,0.559v0.069h0.07
					c0.557,0.697,0.836,1.185,0.836,1.534v0.907l-0.348,0.349l0.209,0.14h0.278l0.419-0.837h0.139l1.115,0.348l0.071,0.349h0.557
					l-0.138-0.418l-0.071-0.14l0.767-1.187c0.14-0.349,0.488-0.488,0.976-0.349l1.255,0.069l0.697-0.906v-0.837l0.279-0.907v-0.069
					l0.068-0.071l0.07-0.069l0.488-0.279v-0.07h0.069l0.07,0.07l1.046,0.14v0.14l0.21,0.837v0.418l0.14,0.629l0.278,0.069
					l0.349-0.488v-0.07l0.558-0.767l0.07-0.14l0.766-0.348h0.07l0.07-0.071l0.907,0.279h0.069l0.139,0.07l0.488,0.976v0.976
					l0.697,1.325v1.117l0.21,0.418h0.209l0.279-0.349l0.07-0.14l0.836,0.489h0.14v0.209l0.279,1.186l0.348,0.209l0.07-0.139
					l0.348-0.907v-0.07l0.07-0.14h0.14l0.488-0.279h0.07v-0.069h0.628l-0.139-0.349v-0.14l-0.348-3.278l-1.325-2.162l-2.509-2.929
					l-0.07-0.07l-0.139-1.883l-0.837-1.464v-0.07l-0.07-0.07l0.07-0.14l0.419-1.813h0.279l4.391-0.28l2.37-1.255l0.07-0.07
					c0.837-0.279,1.395-0.627,1.534-0.976C183.954,153.349,184.094,152.86,184.094,152.163"/>
			</defs>
			<clipPath id="SVGID_22_">
				<use xlink:href="#SVGID_21_"  overflow="visible"/>
			</clipPath>
			<rect x="154.418" y="142.072" clip-path="url(#SVGID_22_)" fill="#E4E4E3" width="34.676" height="35.178"/>
		</g>
	</g>
	<g>
		<g>
			<defs>
				<path id="SVGID_23_" d="M168.829,109.758l-0.419-0.071l-0.698,4.256l1.185,1.394l1.115,0.489h0.069l0.07,0.069l1.464,1.186
					l2.021,0.489h0.07l1.046,0.697h0.07v0.139l0.766,1.116l0.14,0.14l-0.07,0.139l-0.697,1.117c-0.139,0.14-0.139,0.488-0.139,1.046
					h0.07v1.324l-0.07,0.07l-0.628,2.093l-0.07,0.349h-0.14l-0.209-0.07l-0.906-0.21l-1.185,0.07l-1.046,0.349l-1.185,0.976
					l-0.278,0.279l1.533,0.767l-0.139,0.279c-0.07,0.348-0.419,0.698-0.977,0.907l-0.976,0.07l-1.603-0.628l-1.464-0.836h-0.627
					l-1.743,2.511l-0.349,0.837v1.465l0.697,1.185v0.07l0.419,1.116v0.14l0.069,1.604v0.209l0.07,0.14l-1.115,0.21h-2.091
					l-0.976,0.628l-0.418,0.698l0.07,0.069l0.418,2.093h0.07v0.837l0.488,0.976l1.464,0.976l2.161-0.488l1.045-0.697l0.141-0.071
					h0.974l0.558,1.326c0.349,0.348,0.628,0.697,0.767,1.115l0.489-0.069h0.279l0.07-0.14l0.975-0.767l0.906,1.605l0.976,0.627
					h1.395l1.045-0.139h0.209l2.51,0.348h0.07v0.07l1.045,0.628v0.07l0.906,0.697v0.069l0.627,0.698l0.697,0.279l1.115-0.14v-1.464
					l-0.558-0.977h-0.069v-0.07l-0.419-1.814l0.976-0.976l0.07-0.07h0.071l0.835-0.139h0.907l0.279-0.349l-0.558-0.768l-2.021-1.325
					l-0.488-0.768l-0.14-0.14l0.07-0.139l0.557-1.046l0.14,0.138l1.393,0.35l3.695-0.139l0.07,0.069h0.07l1.046,0.348l0.698-0.628
					l-0.349-2.161l-1.324-0.838c-1.115-0.626-1.464-2.162-1.255-4.672l-1.115-0.558l-0.14-0.069h-0.139v-0.209l-0.209-1.815
					l1.534-7.114c-0.627-2.092-0.976-3.487-0.976-4.185l-0.139-2.093l0.139-2.302v-0.14l0.139-0.138l1.395-1.047v-1.115
					c0-0.279-0.139-0.698-0.488-1.256l-0.907-0.977h-0.139v-0.208l-0.139-1.674v-0.07l-0.07-0.07l0.14-0.07v-0.07l1.813-2.301
					v-0.976l-0.558-1.046v-0.07l-0.07-0.14l0.906-1.115v-0.071h0.07l0.976-0.767l-0.139-0.906h-0.489l-0.766-0.14l-0.418,1.673
					l-0.21-0.069l-1.812-0.698l-1.116-0.209l0.418,1.744l-1.533,0.489l-2.231,1.185l-0.697,0.907v0.07h-0.07l-1.184,1.046
					l-0.209,1.674v0.139l-0.628,2.372h0.07l-0.278,1.115v0.071l-0.071,0.069l-0.766,1.046h-0.069v0.069l-0.07,0.069h-0.07
					l-1.673,0.21v0.07l-0.07-0.07l-2.511-0.837l-0.069-0.069L168.829,109.758"/>
			</defs>
			<clipPath id="SVGID_24_">
				<use xlink:href="#SVGID_23_"  overflow="visible"/>
			</clipPath>
			<rect x="154.487" y="93.249" clip-path="url(#SVGID_24_)" fill="#E4E4E3" width="38.092" height="60.427"/>
		</g>
	</g>
	<g>
		<g>
			<defs>
				<path id="SVGID_25_" d="M201.381,90.995l0.279-0.35l-0.488-1.115l-0.488-0.558l-0.558,0.906v0.069l-0.906,1.047l-0.07,0.07
					h-0.14l-1.673,0.487h-0.139l-1.603-0.278l-0.906,0.278l-0.21,0.769l-0.069,0.14l-0.766,0.487l-0.139,0.071h-0.14l-1.394-0.14
					l-0.069,0.14v1.394l-0.07,0.07l-0.767,0.976v0.07h-0.07l-1.324,1.326h-0.07l-0.069,0.069l-1.394,0.279l-0.907,0.976l0.21,1.186
					v0.279l-0.21,0.07l-1.046,0.977l-0.558,0.698l0.418,0.907v1.534l-0.766,1.116v0.07l-1.046,1.185l0.139,1.395l0.907,0.837v0.07
					c0.418,0.698,0.627,1.256,0.627,1.744v1.534h-0.07l-0.07,0.07l-1.394,1.047l-0.139,2.093l0.139,2.092
					c0,0.698,0.279,2.023,0.977,3.976v0.209l-1.534,7.114l0.139,1.395l1.046,0.487l1.673-1.674h0.069l5.368-2.092l1.395-1.256
					l0.139-0.139l0.068,0.07h0.14l3.067,0.279c0.419,0,1.324-0.349,2.649-0.906v-1.465l0.07-0.07h0.069l0.838-0.767l-0.21-0.907
					v-0.278l0.069-0.071c0.279-0.279,0.279-0.558,0.071-0.767c-0.209-0.419-0.139-0.977,0.209-1.604l0.349-0.489l-0.07-0.976
					l-1.046-1.256c-0.489-0.349-0.559-0.837-0.279-1.325c0.139-0.418,0.348-0.836,0.697-1.185l0.279-1.186l0.767-1.674l0.209-0.766
					l1.115-2.094l-0.766-1.325l-2.162-1.325h-0.139v-0.14l-0.418-1.117v-0.209l0.209-1.883v-0.069l0.489-1.395
					c-0.07-0.488,0-0.838,0.209-1.116c0.14-0.139,0.349-0.279,0.558-0.279l1.324-0.209l0.349-0.767l0.348-2.302l-0.279-0.837
					l-1.184-0.279h-0.071l-1.394-0.697l-0.07-0.07v-0.139l-0.069-0.071l-0.07-1.673v-0.349L201.381,90.995"/>
			</defs>
			<clipPath id="SVGID_26_">
				<use xlink:href="#SVGID_25_"  overflow="visible"/>
			</clipPath>
			<rect x="178.815" y="83.973" clip-path="url(#SVGID_26_)" fill="#E4E4E3" width="28.89" height="51.29"/>
		</g>
	</g>
	<g>
		<g>
			<defs>
				<path id="SVGID_27_" d="M205.076,165.275l0.07-0.07h-0.14v-0.14l-0.558-1.046l-0.07-0.069v-0.14l0.14-1.674
					c0-0.209-0.21-0.418-0.628-0.698h-0.418l-0.697,0.837h-0.07l-1.742,0.837l-0.279-1.186v-0.14l0.139-0.558l-0.139-0.698
					l-0.209-0.069l-0.278,0.558h-0.071v0.069l-2.161,1.884l-0.07,0.14h-0.347l-0.628-0.279l-0.069-0.069l-0.697-0.629l-1.115-0.418
					l-0.069-0.07l-0.697-0.487l-2.301-0.489h-0.069l-1.534-0.767v0.069l-1.184-0.556l-1.534-0.14l-0.558,0.069l0.488,2.581h-0.21
					l-1.534,0.14h-0.905l-0.837-0.558l-1.395,0.627l-1.254,1.674l-1.115,2.999l0.348,3.278l0.488,1.883
					c0.069,0.209,0.069,0.279,0,0.349l-0.21,0.07c-0.348,0.209-0.488,0.698-0.419,1.395l0.697,2.859l-0.208,0.14
					c-1.256,0.697-1.883,1.256-1.953,1.535l-0.139,0.976l1.185-0.488l0.069-0.071h0.07c0.837,0,1.324,0.279,1.394,0.978l0.21,1.534
					l-0.07,0.209l-0.14,0.14c-0.208,0.209-0.348,0.418-0.348,0.697l-0.209,1.605c0.07,0.557,0.279,0.976,0.557,1.185l1.465,1.744
					l1.324-1.046l1.045-0.14h0.071l0.068,0.14l0.697,0.209c0.21,0,0.418-0.069,0.628-0.279l0.628-0.907l-0.14-0.557
					c0.14-0.209,0.348-0.348,0.627-0.488h1.674c0.278,0.14,0.487,0.071,0.487-0.069c0.209-0.489,0.418-0.698,0.627-0.837
					c0.21,0,0.558,0.069,0.767,0.279c0.488,0.418,0.836,0.767,0.836,1.255l-0.139,1.255l0.279,0.209
					c0.418,0.349,0.697,0.698,0.697,0.977l-0.279,1.256c-0.208,0.697-0.418,1.185-0.697,1.325v-0.07l-1.046,2.233l0.349,0.139
					l1.673,0.069l0.349,0.14l-0.139,0.279c-0.21,0.697-0.279,1.185-0.21,1.534c0.557,0.348,0.905,0.559,1.115,0.348l0.977-0.418
					l0.487-0.209h0.907l0.906-0.976v-1.186c-0.07-0.419,0-0.698,0.139-0.907c0.279-0.209,0.836-0.209,1.674,0.279l1.672,1.046
					c0.558,0.419,0.976,0.558,1.254,0.558v-0.069c0.139-0.279,0-0.837-0.348-1.535l-0.906-1.395v-0.14h0.071l0.069-0.14
					c0.906-1.255,1.881-1.673,2.997-1.255l2.579,1.186l1.046-0.698h0.07v-0.139l-0.139-0.14l0.07-0.07l0.07-0.14
					c0.836-1.395,1.115-2.441,0.836-2.999c-0.21-0.488-0.558-0.697-0.836-0.697h-0.209l-0.14-0.698h0.14
					c0.488-0.209,0.767-0.419,0.836-0.698l-0.21-0.349l-1.115-1.046v-0.071l-0.558-1.533c-0.21-1.186-0.349-2.233-0.21-3.209v-0.697
					l-0.696,0.627l-0.628,0.698l-0.209-2.929v-0.139h0.07c1.533-2.233,2.578-3.557,2.927-3.906l-0.697-2.093
					c-0.21-1.046-0.349-1.674-0.349-1.952l-1.254-0.559L205.076,165.275"/>
			</defs>
			<clipPath id="SVGID_28_">
				<use xlink:href="#SVGID_27_"  overflow="visible"/>
			</clipPath>
			<rect x="173.935" y="154.278" clip-path="url(#SVGID_28_)" fill="#E4E4E3" width="40.008" height="44.886"/>
		</g>
	</g>
	<g>
		<g>
			<defs>
				<path id="SVGID_29_" d="M180.817,139.399l-0.069,0.279l0.348,0.419l1.812,1.255v0.07h0.069l1.116,1.256l-0.14,0.139
					l-0.697,0.837l-0.069,0.07l-0.07,0.138h-1.186l-0.697,0.071l-0.487,0.488l0.209,0.628v0.07l0.071,0.698l0.626,0.907v2.022
					l0.558,0.21l0.977,0.278h0.069l0.07,0.07l0.07,0.07l0.906,1.256v0.071l0.489,1.254v0.907c-0.07,0.489-0.209,0.907-0.349,1.186
					c-0.348,0.488-0.976,0.907-1.952,1.325l-2.37,1.394h-0.07l-4.322,0.279l-0.279,1.046l0.768,1.395v0.139l0.209,1.813l2.369,2.79
					h0.071v0.07l0.976,1.604l0.07-0.209v-0.071l0.767-2.162l0.07-0.07l1.393-1.814l0.07-0.069l1.743-0.837h0.14l1.115,0.698
					l1.464-0.14l-0.489-2.441l0.279-0.069l1.325-0.14l1.395,0.07h0.139v0.071l2.788,1.254l2.369,0.489h0.14l0.767,0.558l1.115,0.418
					v0.071l0.697,0.627l0.418,0.14l0.766-0.698v-0.069l1.185-0.907l0.628-1.185l1.115,0.626v0.14l0.279,0.906v0.209l-0.14,0.559
					l0.071,0.139l0.697-0.348l0.975-0.976h0.908v0.07h0.069l0.628,0.419c0.418,0.418,0.558,0.767,0.418,1.115l-0.069,1.534
					l0.418,0.767l0.14,0.07c1.671-1.814,2.788-2.72,3.485-2.72h1.881l0.419-0.906l1.464-0.697h0.07l1.812-0.14l1.882-0.976v-0.069
					h1.185l-0.21-0.558l0.071-0.139l0.278-0.28l-2.579-5.51v-0.14l-0.07-0.069l1.116-1.534l-0.348-0.349l-1.883-0.349h-0.209v-0.14
					l-1.185-1.255l0.07-0.279l-0.07,0.07l-0.07,0.07l-1.047-0.698c-0.487,0.628-0.975,1.046-1.533,1.186
					c-0.487,0.209-1.255-0.348-2.3-1.604l-0.559-0.697c-0.069-0.14-0.557,0-1.324,0.279c-1.184,0.418-1.951,0.488-2.3,0.279
					c-0.348-0.348-0.488-1.045-0.348-1.952c0.069-0.768,0-1.187-0.139-1.395l-9.062-0.488c-0.836-0.349-1.533-0.697-1.881-1.047
					l-1.395-0.349c-0.558-0.209-1.602-1.117-2.997-2.86l-0.906,0.767l-1.395-0.419l-3.764,0.07L180.817,139.399"/>
			</defs>
			<clipPath id="SVGID_30_">
				<use xlink:href="#SVGID_29_"  overflow="visible"/>
			</clipPath>
			<rect x="170.45" y="134.33" clip-path="url(#SVGID_30_)" fill="#E4E4E3" width="52.59" height="36.574"/>
		</g>
	</g>
	<g>
		<g>
			<defs>
				<path id="SVGID_31_" d="M226.336,200.289c0.626-0.07,0.975-0.349,1.113-0.698v-0.069l0.071-0.21h0.279l1.256-0.069v-0.907
					c-0.349,0-0.697-0.14-1.046-0.418l-2.09-1.882v-0.071l-0.907-2.651l-1.255-1.255c-1.534-0.07-2.718-0.07-3.554,0l-0.279,0.07
					l0.07,0.836v0.349h-0.21l-1.115,0.488l-0.209-0.14c-0.906-0.906-1.464-1.255-1.813-1.046c-2.439,1.186-3.833,1.744-4.251,1.464
					c-0.28,0.071-0.629,0.349-1.116,0.837l-0.209,0.28l-0.279-0.28c-0.697-0.627-1.045-1.186-1.045-1.604
					c0-0.279,0.487-0.836,1.324-1.743c0.977-1.116,1.464-1.744,1.464-1.884l-0.209-0.349c-0.278-0.14-0.836,0.14-1.534,0.697
					c-0.697,0.489-1.115,0.698-1.394,0.629c-0.139,0-0.279-0.21-0.348-0.558l-0.071-0.14l-0.627-1.117l-1.325,0.837l-0.139,0.14
					l-0.07-0.14h-0.07c-0.975-0.558-1.882-0.907-2.788-1.255c-0.627-0.209-1.255,0.069-1.883,0.837l0.628,1.046
					c0.418,1.046,0.628,1.744,0.418,2.232c-0.07,0.209-0.279,0.418-0.558,0.418c-0.418,0.14-1.045,0-1.812-0.628
					c-0.627-0.418-1.115-0.767-1.534-0.976l-0.837-0.348v0.069l0.071,0.14v1.535l-1.116,1.256v1.186l0.487,1.255l0.07,0.07
					l-0.766,1.185l-0.489,1.117v0.069l-1.046,1.046l-1.743,3.976l0.069,2.162l-0.069,0.07l-3.764,2.162l-0.209,0.418l0.488,1.116
					v0.139l-0.348,1.465l-1.534-0.21l-0.349,1.883h-1.952l-0.418,0.698l-0.557,1.185l-0.348,4.394l0.418,0.907l0.07,0.14v0.906
					l0.835,1.046l0.07,0.14v0.837l2.23-0.139l0.14-0.21v-0.069h0.07v-0.07l0.627-0.837l-1.395-1.256l-0.139-0.139l-0.767-0.628
					l-0.07-0.07l-0.07-0.07v-1.395h1.185l0.139-0.488l-0.487-1.395h2.718l4.81-2.303l0.627-1.046l0.14-0.348l0.976,0.418h0.07
					l0.07,0.209l0.418,0.488l0.487-0.07l-0.14-1.045h1.604l1.533,0.279l0.627-1.047l0.069-0.07v-0.07l0.139-0.069l1.673-0.488
					l0.279-2.441l1.743,1.535l0.697,0.14l0.348-0.419l-0.21-5.301v-0.419l1.186,0.21h0.069c0,0,0.107,0.047,0.14,0.069l0.07,0.07
					c0.586,0.78,1.883,3.418,1.883,3.418l2.369-0.279l0.418-0.139l0.349-0.837l-0.697-0.557l-0.209-0.279l1.603-0.558l0.139-0.071
					l0.07-0.069l0.627,0.698l0.558-0.279v-1.047l0.348-0.07h1.185c0.836,0.07,1.464,0.488,1.952,1.116l0.14,0.279l0.487-1.674
					c0.28-0.418,0.837-0.487,1.674-0.139l0.139,0.069v0.07l0.07,0.07c0.07,0.07,0.208,0.14,0.279,0.14
					c0.348-0.14,1.603-0.976,3.625-2.581C224.872,201.126,225.429,200.568,226.336,200.289"/>
			</defs>
			<clipPath id="SVGID_32_">
				<use xlink:href="#SVGID_31_"  overflow="visible"/>
			</clipPath>
			<rect x="179.861" y="183.364" clip-path="url(#SVGID_32_)" fill="#E4E4E3" width="54.194" height="45.011"/>
		</g>
	</g>
	<g>
		<g>
			<defs>
				<path id="SVGID_33_" d="M226.614,159.418l-0.07-0.071l-1.534-1.325l-0.836,0.418c-0.558,1.255-1.324,2.022-2.301,2.371
					c-0.278,0.139-0.627,0.07-0.836-0.14c-0.279-0.348-0.14-1.116,0.349-2.301l-2.301,1.464l-0.069,0.139h-2.091l-1.813,0.907v0.14
					l-1.952,0.069l-1.046,0.558l-0.487,0.977l-0.14,0.14h-2.3c-0.419,0-1.325,0.697-2.789,2.161c0.697,0.28,1.046,0.558,1.186,0.768
					l0.069,0.418v-0.07l1.045,3.905l0.07,0.209v0.279h-0.07l-0.139,0.07h-0.069l-2.788,3.836l0.139,0.977
					c0.417-0.349,0.766-0.419,1.045-0.279c0.348,0.14,0.487,0.698,0.348,1.535c-0.14,1.326,0.07,2.79,0.698,4.185l0.976,1.047
					c0.348,0.348,0.487,0.697,0.417,1.046l-0.488,0.698l0.627,0.837c0.348,0.697,0.07,1.883-0.767,3.557l0.907,1.534l0.14,0.349
					l0.557-0.349c0.906-0.837,1.673-1.046,2.3-0.837c0.419,0.14,0.628,0.488,0.697,0.837c0.07,0.489-0.488,1.326-1.743,2.581
					l-0.976,1.255l0.488,0.767c0.697-0.627,1.255-0.837,1.604-0.698c0.418,0,1.603-0.418,3.624-1.464
					c0.628-0.348,1.465,0,2.51,1.046l0.418-0.209l-0.07-0.837l-0.209-0.14c-0.139-0.209,0-0.418,0.209-0.627l-0.348-1.326
					c-0.07-0.21-0.07-0.489,0-0.698c0.21-0.209,0.488-0.348,0.766-0.488l0.628-0.557l-0.349-0.837v-0.069h0.07v-0.071
					c0.279-0.418,0.279-0.767,0.208-0.976c-0.278-0.488-0.069-0.836,0.488-1.326l0.768-0.697l-0.14-0.14l-0.209-0.209l0.907-0.418
					v-1.117c0-0.418,0.347-0.976,1.323-1.674l0.419-0.349l-1.046-1.186c-0.349-0.488-0.209-1.115,0.418-1.744v-0.139l2.161-1.813
					l0.07-0.488c-0.418-0.14-0.558-0.907-0.348-2.093c0.278-1.883,1.115-2.79,2.578-2.998h0.14l0.906,0.488h0.976l0.906-1.117
					l0.07-0.069l1.115-0.698l-0.139-0.976v-0.209l0.139-0.14l0.28-0.14l0.348-0.418l0.069-0.069l-0.697-1.186
					c-0.697-0.907-1.324-1.744-1.742-2.72c-0.348-0.628-0.279-1.325,0.21-2.093l-1.256-0.767L226.614,159.418"/>
			</defs>
			<clipPath id="SVGID_34_">
				<use xlink:href="#SVGID_33_"  overflow="visible"/>
			</clipPath>
			<rect x="200.703" y="153.022" clip-path="url(#SVGID_34_)" fill="#E4E4E3" width="36.626" height="46.058"/>
		</g>
	</g>
	<g>
		<g>
			<defs>
				<path id="SVGID_35_" d="M232.329,168.763l-0.139,0.07l-1.185,0.836l-1.045,1.186h-0.07v0.14h-1.533l-0.837-0.488
					c-1.045,0.279-1.603,0.977-1.813,2.301l-0.068,1.186l0.836-0.767l-0.557,2.301v0.14l-2.301,2.022
					c-0.348,0.419-0.487,0.768-0.348,0.977l0.419,0.488c0.488,0.418,0.766,0.767,0.697,1.046c0,0.209-0.07,0.418-0.209,0.558
					l-1.464,1.256c0.07,0.349,0.07,0.906,0,1.535v0.209l-0.069,0.071l-0.557,0.209c0,0.348-0.139,0.557-0.489,0.906l-0.767,0.767
					v0.071c0.14,0.348,0.14,0.767-0.139,1.395c0.348,0.697,0.348,1.185,0,1.394l-0.697,0.698l-0.139,0.069l-0.348,0.14v0.14
					l0.488,1.674h0.139c1.185-0.139,2.441-0.139,3.834,0h0.14v0.07l1.535,1.535v0.069h0.068l0.907,2.581l1.882,1.743l0.767,0.279
					l0.069-2.162l1.742,1.744l0.279-0.28l1.256-2.579l0.208-1.466l0.209,0.071h0.14l1.324,0.069l-0.07-1.046v-0.348h0.209
					l1.743,0.069c0.906-0.907,1.324-1.674,1.324-2.302l-0.278-2.51l1.533,0.489l0.418-0.698l-0.697-0.698l-0.21-0.28l1.395-1.395
					l0.07,0.14h0.139l0.837,0.488v-0.211l-0.559-1.254l0.21-0.209l0.348-0.209l-0.139-0.489l-0.697-1.325l0.14-0.069l0.139-0.139
					l1.883-1.046l0.07-0.767c-1.604-0.837-2.44-1.534-2.301-1.884c0.07-0.279,0.21-0.348,0.559-0.348l2.09,0.348l0.069-1.255v-0.139
					l1.047-1.046l0.279-0.768c-0.419-0.14-0.697-0.419-0.976-0.697l-0.07-0.14v-0.14l0.07-0.349l-0.07-0.14l-0.14-0.069l-0.07,0.069
					c-0.139,0.279-0.487,0.489-0.976,0.489c-0.767,0-1.394-0.349-1.882-0.837v-0.07h-0.07l-0.558-0.976l-0.139,0.139
					c-0.07,0.418-0.348,0.836-0.836,1.186c-0.906,0.418-1.743,0.558-2.579,0.209c-0.558-0.209-0.906-0.627-1.116-1.254l-0.209-1.396
					c-0.209-1.325-0.487-2.093-0.906-2.302c-0.418-0.279-0.837-0.347-1.185-0.279l0.071,1.185L232.329,168.763"/>
			</defs>
			<clipPath id="SVGID_36_">
				<use xlink:href="#SVGID_35_"  overflow="visible"/>
			</clipPath>
			<rect x="214.504" y="162.483" clip-path="url(#SVGID_36_)" fill="#E4E4E3" width="34.537" height="40.085"/>
		</g>
	</g>
	<g>
		<g>
			<defs>
				<path id="SVGID_37_" d="M243.344,148.815c-0.767,0.348-1.394,0.627-1.882,0.697c-0.419,0-1.116-0.14-2.091-0.488l-1.603-0.209
					c-0.489,0.209-1.046,0.907-1.814,2.093l1.046,2.231l-1.743,0.976h-0.069l-1.394-0.418c0.559,1.046,0.697,1.674,0.489,1.952
					l-0.14,0.558c-0.349,0.837-0.628,1.326-0.907,1.604l-2.44,2.162l0.627,0.35l-0.418,0.348c-0.558,0.489-0.697,1.046-0.418,1.464
					l1.673,2.581h0.069v0.069l0.767,1.395v0.071l0.07,0.069l-0.07,0.14v0.209l-0.139,0.14c0.349,0,0.627,0.14,0.976,0.349
					c0.557,0.349,0.975,1.325,1.184,2.79l0.28,1.395c0.139,0.349,0.278,0.558,0.627,0.697c0.557,0.279,1.254,0.209,1.881-0.209
					c0.349-0.209,0.558-0.419,0.489-0.628l-0.07-0.07v-0.14l1.185-0.837l0.138,0.14l0.908,1.535
					c0.348,0.279,0.697,0.418,1.254,0.418l0.349-0.07l-0.279-0.836l1.324,0.558h0.418l0.07,0.14l1.255,0.976l0.349-0.559l-0.07-2.37
					l0.07-0.071l0.837-1.046c0.07-0.139,0-0.418-0.349-0.767l-0.21-0.209l0.139-0.14l0.07-0.139l0.209-0.07l1.742-2.861l0.139,0.071
					l0.349,0.069l0.139,0.071v0.139l-0.139,1.117h0.139l1.953-1.744l-0.139-0.907h-0.348l-0.697,0.07l1.185-3.209l-1.046-0.139
					h-0.139v-0.14l-0.349-0.418c-0.209-0.418-0.209-0.767,0.07-1.116l1.673-0.07h1.046c0-0.349-0.21-0.976-0.835-2.023l-1.465-0.489
					l1.533-1.464v-0.348l-0.765,0.139h-0.28v-0.07l-0.069-0.069l-0.07-0.14c-0.21-0.698-0.627-1.256-1.256-1.464l-2.788,0.069
					l-1.184,1.395v0.071l-0.349-0.071l-4.393-1.395l4.253-1.115c0.279,0,0.975-0.697,2.161-2.093l-1.464-1.046L243.344,148.815"/>
			</defs>
			<clipPath id="SVGID_38_">
				<use xlink:href="#SVGID_37_"  overflow="visible"/>
			</clipPath>
			<rect x="225.448" y="143.466" clip-path="url(#SVGID_38_)" fill="#E4E4E3" width="31.121" height="34.551"/>
		</g>
	</g>
	<g>
		<g>
			<defs>
				<path id="SVGID_39_" d="M216.856,127.472h-0.419l0.07,0.07c0.139,0.558,0.697,1.535,1.882,2.93l0.07,0.07l0.07,0.14
					l-1.115,2.022c-0.358,0.656-0.715,1.006-1.073,1.006c-0.061,0-0.121-0.01-0.181-0.03c-0.278-0.14-0.837-0.767-1.743-1.953
					l-1.185-0.348c0,0.348,0.209,1.046,0.697,2.161v0.279l-0.209,0.768l-1.256,0.557l-0.417,0.139
					c-0.21,0.209-0.21,0.558-0.141,0.977c0.141,1.046,0.071,1.674-0.14,1.953c-0.138,0.14-0.209,0.14-0.348,0.14h-0.069
					l-1.393-0.279c0.068,0.279,0.278,0.557,0.626,0.768c0.697,0.627,1.255,1.533,1.813,2.58l0.069,0.21l0.628-0.14
					c0.186-0.034,0.368-0.051,0.547-0.051c0.558,0,1.086,0.17,1.613,0.54l0.768,0.907l0.069,0.069v0.07h-0.069l-0.07,1.813
					c0.21,0.279,0.349,0.628,0.21,0.907c-0.14,0.349-0.419,0.558-0.907,0.628c-0.557,0-0.836,0.348-0.975,1.045v0.07l-0.557,1.186
					l0.836,0.837l1.812,0.349h0.14l0.906,0.976l-1.115,1.674l2.579,5.58l0.07,0.14l-0.418,0.489l0.14,0.418h0.069l4.741-2.999
					l-0.767,1.395c-0.626,1.046-0.975,1.953-1.115,2.58c0.836-0.348,1.534-0.976,1.951-2.092l0.069-0.14h0.071l1.324-0.698
					l0.07-0.14l1.882,1.675l2.092,0.069l0.07,0.07l0.976,0.628l2.578-2.232c0.21-0.209,0.419-0.628,0.697-1.325l0.28-0.558
					c0.069-0.279-0.28-0.977-0.977-2.163l-0.627-0.907l3.066,1.046l0.908-0.489l-0.908-1.952l-0.068-0.071l1.533-2.022l-0.628-0.977
					c-0.627-0.697-1.045-1.045-1.324-1.045l-0.139,0.07l-0.766,0.767l-0.139-0.07h-0.139l-1.255-0.418l-0.348-1.116
					c-0.489-0.07-0.976-0.348-1.395-0.837l-0.766-0.489c-0.627-0.278-0.976-0.627-0.976-0.976c-0.14-0.418,0-0.907,0.419-1.535
					c0.766-1.117,1.184-2.023,1.184-2.72v-0.906l0.489,0.069l1.603,0.071c0.139-0.14,0.348-0.837,0.627-2.092l-0.487-0.071
					c-1.116,0.768-1.952,1.257-2.579,1.465c-0.129,0.035-0.264,0.053-0.406,0.053c-0.702,0-1.571-0.426-2.731-1.239v-0.069
					l-0.07-0.07h-0.069v-0.069c-0.766-2.651-1.464-4.116-1.952-4.325l-2.44-0.838c-1.394-0.417-2.37-0.697-2.788-0.976
					C218.807,130.053,217.901,129.077,216.856,127.472"/>
			</defs>
			<clipPath id="SVGID_40_">
				<use xlink:href="#SVGID_39_"  overflow="visible"/>
			</clipPath>
			<rect x="204.955" y="122.472" opacity="0.7" clip-path="url(#SVGID_40_)" fill="#FE9A00" width="36.626" height="42.642"/>
		</g>
	</g>
	<g>
		<g>
			<defs>
				<path id="SVGID_41_" d="M219.155,89.948l-0.209-0.14c-0.348,0-0.697,0.349-1.045,1.116l-0.21-0.139l-0.068,0.07l0.068,0.07
					l-0.627,0.627l-0.279,0.14l-0.767,0.419l-0.07,0.488c0.07,0.768-0.139,1.326-0.487,1.534l-0.279,0.837
					c-0.07,0.209-0.14,0.767-0.07,1.535l0.418,2.092c0.139,0.279,0.488,0.627,1.185,0.906l1.603,0.419
					c0.417,0,0.976-0.209,1.603-0.627l-0.418-0.768v-0.208l0.14-0.628v-0.07l0.767-1.395h1.324l0.349-0.07
					c-0.139-0.419-0.558-1.186-1.325-2.163l-0.489-0.698c-0.278-0.557-0.557-1.185-0.627-2.022
					C219.504,90.645,219.295,90.228,219.155,89.948"/>
			</defs>
			<clipPath id="SVGID_42_">
				<use xlink:href="#SVGID_41_"  overflow="visible"/>
			</clipPath>
			<rect x="210.084" y="84.809" clip-path="url(#SVGID_42_)" fill="#E4E4E3" width="17" height="20.114"/>
		</g>
	</g>
	<g>
		<g>
			<defs>
				<path id="SVGID_43_" d="M212.812,87.298l-0.139,0.209l-0.21-0.07l-0.906-0.14l-0.069,0.418v0.21h-0.209l-1.464,0.557
					l-0.069,0.21c-0.209,0.488,0,0.906,0.487,1.464l0.14,0.14l-0.14,0.209c-0.418,0.697-1.045,1.395-1.742,1.883
					c-0.279,0.21-0.349,0.419-0.349,0.629l0.488,0.627l0.767,0.279l0.627,0.069c0.836,0,1.394,0.071,1.604,0.418l0.697,0.489
					c0.488,0.208,0.907,0.348,1.255,0.348c0.278,0,0.627-0.211,0.906-0.768l0.557-0.627l0.419-1.325l-0.349-1.534l0.557,0.139
					l0.907,0.069l0.417-0.279l0.14-0.348l-0.697-2.022l0.208-0.698c0.21-0.418,0.488-0.558,0.767-0.627h0.07l-0.139-0.489
					l-1.673,0.07v-0.07l-1.532-1.046c-0.629-0.419-1.256-0.488-1.814-0.349l-0.209,0.14c-0.139,0.279,0,0.558,0.418,0.698
					C212.882,86.461,213.022,86.81,212.812,87.298"/>
			</defs>
			<clipPath id="SVGID_44_">
				<use xlink:href="#SVGID_43_"  overflow="visible"/>
			</clipPath>
			<rect x="203.142" y="80.28" clip-path="url(#SVGID_44_)" fill="#E4E4E3" width="19.341" height="19.969"/>
		</g>
	</g>
	<g>
		<g>
			<defs>
				<path id="SVGID_45_" d="M238.813,69.582l-0.836,1.116c-0.139,0.209-0.209,0.627-0.071,1.325v0.419h-1.743l-1.184-0.349
					l-0.906,1.395l-0.139,0.14l-1.116,0.697l-0.975,1.046l-0.14,0.21l-1.742,2.022v0.071h-0.07l-1.324,0.697l-1.046-0.697v-0.071
					l-0.976-1.046l-0.627-0.348l0.487,2.86l0.418,1.535l-1.045,0.976l-1.465,2.162v0.907l-0.069,0.069h-0.07l-0.348,0.558
					l0.278,0.489h0.558l2.022,0.557h0.139v0.07h0.07l0.419,0.418l0.557,0.279h0.139v0.069c0.21,0.279,0.349,0.558,0.349,0.838
					l0.209,0.628l2.161,0.628l0.627-0.14l0.628-0.837l1.674-3.208h0.069v-0.07l0.766-1.046l0.07-0.07l1.325-0.628l0.907-0.069
					c0.348-0.558,0.627-0.837,0.976-0.837c0.209,0,0.557,0.139,1.115,0.418l0.139,0.069v0.071l1.185,1.813v0.071h0.07v0.139
					l0.139,1.325l-0.071,1.465l-0.348,1.257v0.139h-0.069l-0.907,1.116l-0.418,0.907l0.07,1.535h0.139l0.487-0.209l0.558-0.489
					l0.139-0.14l0.07-0.14l0.697,0.629v1.186h-0.07l-0.628,0.279l-0.209,0.279v0.627l-0.07,0.07l-0.417,0.767H239.3l-0.139,0.07
					l-0.558,0.069l-0.558,0.14l-0.417,0.767l0.069,0.14l2.3-0.279l0.419-0.349l0.766-2.022l5.159-5.302h0.139l1.115-0.558
					l0.069-0.069v0.069h0.907l0.906-0.209l0.976-0.418l0.697-0.768l1.115-3.068v-0.07l4.322-4.533v-0.069l-0.278-2.441
					c-0.209-0.071-0.489-0.21-0.628-0.419l-0.139-0.139v0.069l-0.697,0.07c-0.348-0.139-0.558-0.279-0.836-0.627l-0.209-0.419v-0.07
					l-0.071-0.069v-3.767c-0.417-0.14-0.836-0.419-1.324-0.907l-0.907-0.977l-0.835-1.186c-0.14-0.279-0.14-0.698-0.07-1.325
					l0.07-0.35l-0.488-0.628l-0.071,0.558l-0.627,1.186h-0.209c-0.488,0-1.046-0.07-1.464-0.279
					c-0.418-0.139-0.627-0.488-0.627-0.907v-0.279h-0.348l-1.323,0.348l-0.977-0.976l-0.348-0.069l-0.349,0.349l0.419,0.697
					l0.14,0.21l-0.698,1.465h-0.07v0.07h-0.07l-1.254,1.396l-0.07,0.069h-0.14l-1.952,0.208L238.813,69.582"/>
			</defs>
			<clipPath id="SVGID_46_">
				<use xlink:href="#SVGID_45_"  overflow="visible"/>
			</clipPath>
			<rect x="218.826" y="60.468" clip-path="url(#SVGID_46_)" fill="#E4E4E3" width="42.761" height="41.246"/>
		</g>
	</g>
	<g>
		<g>
			<defs>
				<path id="SVGID_47_" d="M240.345,48.239l-0.278-1.465l-0.696,0.419H239.3l-1.672,0.628l-0.071-0.139l-0.278-0.071v0.768
					l-0.07,0.07l-0.836,1.255h-0.071v0.07h-0.069l-1.255,1.046h-0.139v0.139l-0.21-0.139c-0.836-0.348-1.394-0.768-1.534-1.116
					c-0.139-0.139-0.209-0.139-0.348-0.209l-0.906,0.139l-0.558,0.558l1.464,1.255l1.185,0.489l0.07,0.07h0.069l0.07,0.139v0.07
					l0.21,1.395h0.068v2.161l0.279,1.256l0.836,1.953l0.976,0.908l0.767-0.558l0.558-0.698v-0.071h0.068l0.976-1.185l0.836,0.768
					v0.139l0.837,1.605l1.046,0.418l0.558,1.674v0.14l-0.071,1.534v0.07h-0.068l-0.419,1.396l0.767,0.697l0.836-0.419l0.837-0.836
					l0.209,0.139l0.697,0.209l0.837,0.767l0.905-0.209c0.697-0.21,1.046,0,1.255,0.488v0.628l0.139,0.07l0.975,0.278l0.419-0.906
					v-0.348c0-0.279,0.07-0.557,0.279-0.628l0.558,0.07c0.767,0.348,1.115,0.836,1.115,1.394l-0.07,0.488v0.837l0.767,1.117
					l0.906,0.976c0.279,0.348,0.628,0.488,0.976,0.628h0.14c0.209,0.14,0.349,0.489,0.349,1.256v3.138
					c0.139,0.279,0.348,0.489,0.557,0.558h0.14c0.418-0.209,0.697-0.139,1.046,0.21l0.209,0.139c0.349,0.07,0.627,0.349,0.697,0.908
					l0.14,1.744l1.603-3.278c0.488-1.744,1.046-2.79,1.812-2.929c0.628-0.209,1.603,0.14,2.858,0.837l4.531,0.348l0.139-0.977
					l-2.091-2.023c-0.976-0.558-1.394-0.976-1.255-1.255l1.603,0.07c1.464,0.489,2.858-0.349,4.182-2.721h0.071l1.533-1.464
					l0.209-3.209v-0.348h0.348l1.185-0.279h0.21l0.14,0.07v0.07l2.439,2.58l0.697-0.279l0.139-0.419l-1.324-1.255l-0.209-0.139
					l-0.14-0.209l2.021-1.186l-0.138-2.928l-0.837,0.138h-0.071l-1.115-0.557c-0.418-0.07-0.976-0.349-1.812-0.837
					c-0.419-0.209-0.697-0.419-0.697-0.698v0.071c0,0.279-0.07,0.418-0.21,0.488c-0.21,0.139-0.487,0.209-0.976,0.209h-0.07
					l-0.069-0.07h-0.07l-0.975-0.698l-0.838,0.698c-0.418,0.348-0.697,0.628-0.697,0.907l0.419,0.907
					c0.21,0.278,0.21,0.418,0.139,0.627c-0.139,0.209-0.487,0.419-0.975,0.488l-0.419,0.21c-0.488,0.14-0.906,0.07-1.184-0.279
					l-0.139-0.209l-1.813-1.883c-0.836-0.279-1.324-0.628-1.533-1.046c-0.139-0.209-0.21-0.419-0.139-0.558
					c-0.07-0.628-0.209-1.046-0.349-1.256l-0.348,0.209L263,54.586c0,0.209,0.07,0.419,0.279,0.698l0.07,0.14l0.069,0.07
					l-0.069,0.139l-0.976,1.605l-1.603-0.348l-0.348-0.21V56.47c0.138-0.279,0.138-0.627,0-0.976l-0.21-0.559l-1.324-0.975
					l-0.07-0.07c-0.138,0.209-0.278,0.209-0.417,0.279l-1.255-0.14c-0.419-0.069-0.697-0.139-0.836-0.418
					c-0.07-0.14-0.07-0.419,0.069-0.768l0.07-0.209l-0.558-0.977l-2.439,0.139c0.07,0.349,0,0.559-0.139,0.837
					c-0.071,0.209-0.349,0.279-0.558,0.279c-0.349,0.139-0.768,0-1.116-0.349v-0.07h-0.069c-0.558-0.628-0.767-1.116-0.767-1.535
					l-0.487-0.697l-0.697,0.488c-0.627,0.349-1.046,0.349-1.256,0.07l-0.278-0.07l-0.697,0.07l-1.881,0.627
					c-0.419,0.28-0.767,0.35-1.046,0.35h-0.209c-0.697,0-1.116-0.21-1.394-0.488l-1.115-0.907L240.345,48.239"/>
			</defs>
			<clipPath id="SVGID_48_">
				<use xlink:href="#SVGID_47_"  overflow="visible"/>
			</clipPath>
			<rect x="226.284" y="41.775" clip-path="url(#SVGID_48_)" fill="#E4E4E3" width="56.703" height="41.736"/>
		</g>
	</g>
	<g>
		<g>
			<defs>
				<path id="SVGID_49_" d="M283.704,35.127l-1.046-6.835l0.07-0.14h0.07c0.487-0.767,0.766-1.394,0.627-1.883l-0.277-0.419
					c-0.767-0.488-1.116-1.604-0.907-3.487h-0.628c-0.488-0.07-1.046,0.139-1.603,0.488c-0.558,0.419-0.906,0.907-0.976,1.256
					c-0.278,0.837-1.185,1.395-2.719,1.882l-0.348,2.163v0.07l-0.071,0.07l-0.765,1.395l-0.071,0.139h-0.14l-6.901,1.256h-0.278
					v-0.14l-2.021-2.162l0.627-0.627l-0.767-1.046l-0.976-0.698l-0.07-0.07h-0.07V26.2l-0.348-1.883l-1.813,0.14l-0.138-0.14
					l-1.534-0.907l-5.507-0.977l-4.601-0.21l-0.139,0.14c-0.209,0-0.348-0.07-0.418-0.21l-2.65-5.997
					c-0.278-0.489-1.393-2.023-3.624-4.674c-2.09-2.58-3.276-3.975-3.625-4.254l-3.904-3.836l-0.627-0.349l-4.879-0.07h-0.07
					l-0.14-0.139c-0.487-0.349-1.185-0.697-2.23-0.907c-0.906-0.349-2.997,0.348-6.273,2.092l-0.14,0.07l0.14,0.976h0.069v0.071
					h-0.069v0.14l-0.558,1.115v0.07h-0.071l-0.069,0.768c0,0.627,0.14,1.325,0.348,1.883l0.489,0.348l1.045-0.07l0.906,0.209
					l0.348-0.278c0-0.627,0.21-1.116,0.488-1.255h0.697l2.439,0.698l0.558,0.068l-0.767,1.326v1.604
					c0,0.349,0.628,1.185,1.883,2.371c0.766,0.558,1.254,0.837,1.672,0.907l0.349-0.07l0.348-0.14l1.185-1.186l0.907-0.558v-0.07
					l1.882-0.279l0.557-1.185l1.673-0.977l1.464,0.837v0.069l0.139,0.071l1.395,2.37l0.557,1.604v0.21l-0.279,1.952l0.558,1.325
					v0.21l-0.417,1.534v1.395c0.417,1.256,0.628,2.092,0.628,2.303l-0.139,1.185v0.07l-0.697,0.976v0.071l-0.697,0.837l-0.07,1.534
					l0.419,1.605l0.069,0.069l-0.069,0.07l-0.419,2.441l-0.349,0.349c-0.278,0.21-0.627,0.21-1.046,0h-0.139l-0.626-0.697
					l-0.697,0.21l-0.907,0.975l-0.977,2.861v0.07l-0.069,0.069l-0.976,0.836h-0.139l-0.558,0.07l-1.116,1.604l0.559,1.047
					l0.139,0.139l1.394,1.743v0.628l1.534,0.209L237,44.822v0.07l0.209,1.673l0.419,0.349l1.393-0.418l1.324-0.767l0.21-0.14
					l0.487,2.371l0.628,0.908l0.139,0.069l0.489,0.977l1.045,0.836c0.139,0.21,0.487,0.21,0.836,0.21l0.348,0.07l0.628-0.28
					c0.488-0.209,0.976-0.418,1.533-0.488l0.419-0.21l0.976-0.07c0.348,0,0.488,0.07,0.697,0.28l1.395-0.907h0.139l0.139,0.071
					l0.07-0.071l0.14,0.139c0.557,0.627,0.835,1.186,0.835,1.465l0.629,1.046l0.488,0.139h0.14l-0.14-0.139
					c-0.071-0.349-0.071-0.559,0-0.698c0.14-0.21,0.418-0.349,0.837-0.349l2.578-0.07l0.071-0.07h0.14v0.139h0.139l0.767,1.465
					l-0.07,0.767h-0.068l0.976,0.21h0.07c-0.07-0.21-0.07-0.349,0.069-0.488l0.348-0.071l2.301,1.604
					c0.209,0.21,0.348,0.488,0.419,0.837l0.068,0.978l0.768,0.139l0.488-0.837c-0.21-0.419-0.348-0.838-0.279-1.116
					c0.068-0.279,0.139-0.488,0.417-0.628l0.21-0.209c0-0.14,0.071-0.209,0.209-0.279l0.627,0.07
					c0.348,0.209,0.628,0.906,0.767,2.092v0.139l0.14,0.071c0.071,0.279,0.488,0.488,1.116,0.697h0.068l0.07,0.069l2.23,2.302
					l1.046-0.349l-0.14-0.349c-0.279-0.348-0.349-0.697-0.349-0.905c0-0.489,0.349-0.977,1.046-1.465l1.186-1.046l1.393,0.975h0.278
					l0.28-1.534v-0.279l0.278-0.07l1.116,0.14c0.209,0.209,0.348,0.418,0.348,0.768c0,0.278-0.208,0.627-0.419,0.906l0.21,0.14
					c0.696,0.348,1.254,0.627,1.672,0.697h0.071l0.906,0.489l0.697-0.071l-1.046-5.091c-0.697-0.419-1.324-1.255-1.951-2.232
					c-0.488-0.837-0.21-2.022,0.906-3.418c0.626-0.697,1.394-1.394,2.231-2.092l0.07-0.14h0.976l0.07,0.14l0.835,0.349h1.743
					c0.697-0.349,1.324-1.395,2.022-3.069C283.982,40.289,283.982,38.266,283.704,35.127"/>
			</defs>
			<clipPath id="SVGID_50_">
				<use xlink:href="#SVGID_49_"  overflow="visible"/>
			</clipPath>
			<rect x="216.247" y="-3.16" clip-path="url(#SVGID_50_)" fill="#E4E4E3" width="72.651" height="66.931"/>
		</g>
	</g>
	<g>
		<g>
			<defs>
				<path id="SVGID_51_" d="M243.482,104.526l-0.139,0.069c0,0.349-0.21,0.558-0.558,0.558l-2.719-0.279
					c-1.881-0.348-3.051-1.067-3.764-0.977c-1.309,0.165-3.834,3.627-3.834,3.627l0.141,1.535v0.14l-0.349,0.069
					c-2.997,0.418-4.601,0.14-4.811-0.837l-0.348-4.324l-3.485-0.21l-1.462,3.069l-0.141-1.325
					c-0.069-1.046-0.278-1.674-0.488-1.813l-1.534,0.767l-0.697,0.906l-0.07,0.071h-0.07l-1.393,0.488
					c-1.534,1.255-2.859,2.58-4.043,3.975l-3.695,5.022l0.767,1.743v0.279l-0.07,0.07c-0.278,0.419-0.139,1.046,0.28,1.743
					c0.488,0.906,0.836,1.884,0.836,2.999v0.21l-2.997,1.743v0.698l1.394,0.627c0.14,0.07,0.209,0.209,0.209,0.279v0.14
					c-0.07,0.349,0.488,0.836,1.534,1.325l2.578,0.697l0.767-0.488l0.837-1.185l0.697-2.023l2.02,0.767l0.279,0.21v0.209
					c-0.348,0.837-0.139,1.395,0.489,1.744l2.23,0.07c0.767-0.14,1.394-0.418,1.813-0.767c0.278-0.349,0.697-0.419,1.324-0.349
					c0.767,0.14,1.464,0.419,1.952,1.047l0.487-1.186l0.14-0.209h0.071c0.348-0.209,0.558-0.558,0.836-1.046
					c0.21-0.489,0.559-0.977,1.115-1.326l0.976-0.557l0.07-0.07l0.07,0.07h0.07l0.557,0.139l0.14,0.069l0.767-3.488v-0.069
					l1.115-0.209c1.115-0.767,1.674-1.394,1.603-1.953l-0.209-1.047c-0.279-0.697-0.279-1.185-0.14-1.394
					c0.21-0.209,0.348-0.278,0.558-0.278c0.488,0,1.046,0.14,1.604,0.418l0.139-1.116v-0.14l0.069-0.069l1.186-0.559l0.139-0.627
					h-0.696l-0.14-0.071l0.069-0.349v-0.21l0.071-0.14h0.348c0.487,0,1.045-0.279,1.671-0.835l4.393-3.139h0.139l1.394,0.627
					l0.559-0.069l-0.349-1.465v-0.139l0.07-0.071l0.069-0.069l0.766-1.256l-0.208-0.14l-0.488,0.14v0.07h-0.07l-1.395,0.209h-0.417
					v-0.069l-0.07-0.21l-0.279-0.488H243.482"/>
			</defs>
			<clipPath id="SVGID_52_">
				<use xlink:href="#SVGID_51_"  overflow="visible"/>
			</clipPath>
			<rect x="203.839" y="98.828" clip-path="url(#SVGID_52_)" fill="#E4E4E3" width="47.85" height="33.784"/>
		</g>
	</g>
	<g>
		<g>
			<defs>
				<path id="SVGID_53_" d="M249.687,146.025l0.488-0.557v-0.071l-1.743-1.395c-0.906-0.627-1.673-0.836-2.23-0.766l-0.767,0.279
					v1.464c-0.139,0.489-0.348,1.046-0.836,1.465l-0.279,0.279l0.697,0.837h0.071l0.209,0.558l0.837,0.348
					c0.487-0.348,0.836-0.488,1.184-0.419l1.464,0.279l0.07-0.488C248.92,146.863,249.269,146.304,249.687,146.025"/>
			</defs>
			<clipPath id="SVGID_54_">
				<use xlink:href="#SVGID_53_"  overflow="visible"/>
			</clipPath>
			<rect x="239.319" y="138.223" clip-path="url(#SVGID_54_)" fill="#E4E4E3" width="15.856" height="15.243"/>
		</g>
	</g>
	<g>
		<g>
			<defs>
				<path id="SVGID_55_" d="M239.579,130.682c-0.767-0.629-1.394-1.744-2.022-3.488c-2.021,0-3.205-0.348-3.764-1.046
					c-0.419-0.629-1.254-1.047-2.44-1.396l-0.348-0.071l0.348-1.185l-0.209-0.14l-0.348-0.07c-0.836,0.419-1.394,0.837-1.604,1.394
					c-0.278,0.559-0.627,1.047-1.046,1.396c-0.348,1.116-0.697,1.674-1.046,1.674c-0.209,0.069-0.348-0.07-0.487-0.279l-0.558-0.487
					c-0.417-0.21-0.836-0.419-1.185-0.419l-0.697,0.14c-0.488,0.489-1.185,0.837-2.23,0.977l-2.65-0.14
					c-0.836-0.418-1.185-1.255-0.976-2.301l-0.976-0.348l-0.487,1.395v0.069l-0.07,0.069l-0.209,0.279l0.628,0.14h0.139l0.07,0.07
					v0.07c1.185,1.603,2.091,2.65,2.579,2.928c0.278,0.14,1.116,0.419,2.579,0.838l2.509,0.906c0.766,0.349,1.534,1.884,2.369,4.604
					c1.116,0.767,1.814,1.116,2.302,1.046c0.488-0.209,1.323-0.697,2.509-1.465l0.069-0.069l0.071-0.07l0.139,0.07l1.254,0.279
					h0.139v0.209l-0.07,0.209c-0.418,1.674-0.767,2.65-1.046,2.929l-1.673,0.07v0.07c0,0.698-0.488,1.744-1.394,3.069
					c-0.279,0.419-0.348,0.767-0.348,0.976l1.603,1.115c0.418,0.489,0.697,0.629,1.046,0.629h0.349l0.348,1.186l0.766,0.278
					l0.419-0.418c0.21-0.21,0.487-0.349,0.697-0.279c0.697,0,1.255,0.419,1.952,1.325l0.627,0.837l0.07-0.07
					c0.418-0.279,1.185-0.209,2.3,0.14l1.812,0.418l1.674-0.558l0.697-0.349l0.487-0.348l-0.419-0.488
					c-0.139-0.279,0-0.627,0.349-0.976c0.419-0.348,0.696-0.697,0.696-1.116v-0.837c-0.138-0.419-0.068-0.697,0.07-0.836
					c0.14-0.279,0.627-0.419,1.185-0.558c0.906-0.14,2.021,0.279,3.345,1.394l-0.487-1.394l-0.768-1.046l-0.139-1.256l-1.185-0.209
					h-0.07v-0.069l-3.137-1.814l-1.533-0.279v-0.348l-0.071-1.604C241.043,133.123,240.207,131.309,239.579,130.682"/>
			</defs>
			<clipPath id="SVGID_56_">
				<use xlink:href="#SVGID_55_"  overflow="visible"/>
			</clipPath>
			<rect x="211.577" y="118.287" clip-path="url(#SVGID_56_)" fill="#E4E4E3" width="42.901" height="35.457"/>
		</g>
	</g>
	<g>
		<g>
			<defs>
				<path id="SVGID_57_" d="M227.52,87.787l-0.557-0.28h-0.07l-0.418-0.418l-1.952-0.558h-0.488l-0.348,0.139l-0.768-1.464
					l0.07-0.07l0.558-0.697v-0.837l0.069-0.14l0.348-0.558l-0.278-0.14l-1.046-0.209l-1.813-0.279h-0.139l-1.046-1.046v-0.069
					l-0.349-0.698l-0.07-0.209l0.558-1.465v-1.046l-0.069-0.279l-0.559,0.558l-0.07,0.069l-0.139,0.21l-0.139-0.21l-0.209-0.069
					l-1.046-0.836l-0.14-0.14v-0.14l-0.209-1.535l-0.488-0.767l-1.046,0.07l-0.628,1.116l-0.069,0.14l-0.07,0.069l-1.672-0.349
					l-0.279,1.535v1.533l-0.07,0.07l-0.906,1.395v0.14l-0.14,0.07h-0.071l-1.046,0.07l-1.045,0.837l-0.139,0.139h-0.14l-0.07-0.07
					l-1.953-0.628l-0.278,0.698v0.07l-0.836,1.394c-0.14,0.279-0.349,0.418-0.557,0.488l-0.837-0.14l-1.116-0.488l-0.209-0.14
					l-0.07-0.069v-0.071l-0.209-1.673l-0.349-1.256l-0.209-0.349l-0.488,0.976l-0.836,1.117l-0.697,1.604v0.14h-0.069l-0.628,0.907
					c0,0.278-0.209,0.698-0.627,1.325l0.419,1.604l2.091,2.302l0.697,1.464v0.14l-0.07,0.14h-0.07l-0.558,0.698l-0.139,0.14
					l-1.394,0.278l0.139,1.117l1.046,0.557l1.533,0.349l0.418,1.394v0.14l-0.348,2.372v0.07l-0.558,1.046v0.21h-0.139l-1.742,0.279
					v0.697l-0.487,1.535l-0.21,1.744l0.349,0.977l2.16,1.325l0.07,0.07l0.906,1.535v0.069l0.07,0.07l-0.07,0.07l-1.115,2.442
					l-0.279,0.697l-0.696,1.604l-0.279,1.256l-0.069,0.14v0.069c-0.349,0.279-0.558,0.559-0.697,0.976
					c-0.07,0.14-0.07,0.279,0.069,0.418l0.071,0.07l0.697,0.767l0.349,0.558l0.139-0.069l0.069,0.209v0.349l0.139,0.419l0.627,0.209
					l2.51,0.558c0.837,0,1.603-0.21,2.44-0.558c0.836-0.349,1.603-0.419,2.44-0.279l0.138-0.488l-0.835-1.883l-0.071-0.14h0.071
					l3.972-5.51l4.252-4.114h0.07l1.324-0.489l0.697-0.767v-0.07c0.558-0.418,1.046-0.697,1.604-0.906l-0.419-0.349l-0.907-0.906
					v-0.071h-0.069l-0.697-0.837l-0.07-0.139v-0.14l0.348-0.419l-0.906,0.21l-1.951-0.488c-0.767-0.349-1.254-0.768-1.395-1.256
					c-0.418-1.256-0.557-2.371-0.488-3.348c-0.279,0.348-0.627,0.419-0.975,0.419l-1.465-0.35l-0.976-0.697l-1.184-0.279h-0.559
					c-0.348,0-0.767-0.139-1.046-0.418c-0.418-0.279-0.627-0.558-0.697-0.837c-0.139-0.558,0-0.906,0.488-1.256
					c0.488-0.348,1.047-0.907,1.534-1.604c-0.487-0.627-0.697-1.255-0.487-1.883l0.07-0.07c0.069-0.349,0.628-0.627,1.673-0.976
					c0.07-0.348,0.209-0.558,0.348-0.628l1.046,0.07l-0.139-0.139c-0.697-0.419-0.906-0.906-0.557-1.464l0.557-0.418
					c0.628-0.209,1.395-0.14,2.161,0.279l1.602,1.116h1.464l0.489,0.418l0.139,0.559c0,0.349-0.209,0.558-0.488,0.558
					c-0.348,0-0.488,0.348-0.558,0.767l0.697,1.674c0.418-0.628,0.837-0.976,1.255-1.046c0.209,0,0.487,0.14,0.697,0.418
					c0.209,0.349,0.418,0.976,0.558,1.604c0.069,0.768,0.278,1.395,0.488,1.744l0.558,0.768c0.837,1.046,1.324,1.813,1.463,2.441
					l2.719-0.349l1.185-0.629l1.115-1.394l0.488-1.325v-0.14l0.348-1.396v-0.07l0.07-0.139h0.07l1.046-0.697l0.209-0.14l-0.07-0.071
					l-1.743-0.557h-0.139v-0.07l-0.348-1.046L227.52,87.787"/>
			</defs>
			<clipPath id="SVGID_58_">
				<use xlink:href="#SVGID_57_"  overflow="visible"/>
			</clipPath>
			<rect x="194.359" y="69.604" clip-path="url(#SVGID_58_)" fill="#E4E4E3" width="40.602" height="53.732"/>
		</g>
	</g>
	<g>
		<g>
			<defs>
				<path id="SVGID_59_" d="M201.66,116.592l-0.139,0.069l-0.14,1.814l-0.07,0.627c-0.139,0.348-0.278,0.558-0.139,0.697
					c0.349,0.489,0.278,1.047-0.07,1.535l0.279,1.187l-0.07,0.069l-0.139,0.07l-0.836,0.766v1.605l-0.21,0.07
					c-1.534,0.698-2.578,1.047-3.207,1.047l-3.067-0.21l-1.324,1.185h-0.14l-5.297,2.163l-1.604,1.535
					c-0.278,2.37,0,3.766,0.837,4.185l1.534,0.975h0.07v0.071l0.419,2.58c1.323,1.744,2.23,2.652,2.718,2.86l1.534,0.349
					l0.209,0.069v0.071c0.209,0.278,0.698,0.557,1.603,0.836l4.183,0.21c3.068,0,4.81,0.209,5.158,0.558
					c0.349,0.278,0.418,0.975,0.349,2.022c-0.07,0.698,0,1.117,0.069,1.187l1.534-0.349c0.619-0.219,1.105-0.323,1.478-0.323
					c0.34,0,0.586,0.087,0.753,0.254l0.558,0.698c0.777,0.971,1.314,1.401,1.497,1.401c0.014,0,0.026-0.002,0.035-0.007
					c0.419-0.14,0.907-0.558,1.394-1.255l0.139-0.21l1.255,0.767l0.767-0.627c0.21-0.977,0.696-1.464,1.533-1.535l0.348-0.138
					l-0.139-0.279l-0.139-0.14l0.068-0.07l0.07-1.743c-0.467-0.702-1.033-1.011-1.654-1.011c-0.12,0-0.243,0.012-0.367,0.034
					c-0.356,0.097-0.667,0.15-0.919,0.15c-0.291,0-0.503-0.07-0.616-0.219c-0.138-0.209-0.138-0.348-0.138-0.628
					c-0.488-0.837-0.976-1.535-1.604-2.162c-0.835-0.697-1.045-1.325-0.835-1.953l0.139-0.209l1.952,0.348l-0.14-1.185
					c-0.07-0.698,0-1.186,0.349-1.534c0.14-0.279,0.488-0.419,0.836-0.489l0.836-0.279v-0.348c-0.627-1.325-0.836-2.302-0.558-2.719
					l0.419-0.349c0.035-0.012,0.084-0.018,0.146-0.018c0.305,0,0.924,0.145,1.735,0.435l0.07,0.07v0.139
					c0.766,0.907,1.185,1.464,1.394,1.605l1.324-2.163c-1.184-1.465-1.811-2.511-2.021-2.93l-1.046,0.698l-0.139-0.139l-2.788-0.698
					h-0.07v-0.07c-1.185-0.558-1.882-1.186-1.952-1.813l-1.672-0.767v-1.605l3.066-1.813c-0.139-0.837-0.349-1.674-0.696-2.372
					l-0.487-0.975l-2.092,0.209c-0.976,0.418-1.883,0.627-2.788,0.627l-2.162-0.487v-0.76l-0.348-0.077l-0.627-0.209l-0.139-0.419
					v-0.07l-0.069-0.209V116.592"/>
			</defs>
			<clipPath id="SVGID_60_">
				<use xlink:href="#SVGID_59_"  overflow="visible"/>
			</clipPath>
			<rect x="180.383" y="111.592" opacity="0.7" clip-path="url(#SVGID_60_)" fill="#FE9A00" width="42.309" height="41.882"/>
		</g>
	</g>
	<g>
		<g>
			<defs>
				<path id="SVGID_61_" d="M201.66,116.592l-0.139,0.069L201.66,116.592 M201.729,117.08v0.07l0.139,0.419l0.627,0.209l0.348,0.077
					v-0.008l-0.348-0.069l-0.627-0.209l-0.139-0.419V117.08"/>
			</defs>
			<clipPath id="SVGID_62_">
				<use xlink:href="#SVGID_61_"  overflow="visible"/>
			</clipPath>
			<rect x="196.52" y="111.592" clip-path="url(#SVGID_62_)" fill="#EABA87" width="11.324" height="11.264"/>
		</g>
	</g>
	<g>
		<g>
			<defs>
				<path id="SVGID_63_" d="M252.963,184.804c-2.23,1.605-3.834,3.628-4.879,6.068c-0.907,2.092-1.603,3.139-2.091,3.418
					l0.488,3.836v0.069l-0.349,2.651c-0.14,0.837,0,1.395,0.209,1.535l2.857,1.883h0.07l0.07,0.209
					c0.139,0.628,0.557,1.186,1.115,1.883c0.28,0.418,0.628,0.627,0.906,0.767l0.419-4.604v-0.14l2.021-4.882l0.697-5.789v-0.07
					l0.07-0.069l0.627-1.536l-0.488-1.325v-0.07h-0.07l-0.139-1.813l0.07-0.07l0.069-0.07l0.348-0.418l0.21-0.488L252.963,184.804"
					/>
			</defs>
			<clipPath id="SVGID_64_">
				<use xlink:href="#SVGID_63_"  overflow="visible"/>
			</clipPath>
			<rect x="240.992" y="179.804" clip-path="url(#SVGID_64_)" fill="#E4E4E3" width="19.201" height="32.32"/>
		</g>
	</g>
	<g>
		<g>
			<defs>
				<path id="SVGID_65_" d="M184.302,225.606l-0.209,0.348v0.071l-0.07,0.139l-2.857,0.698l0.139,0.348l0.905,1.046
					c-0.07,0-0.209,0.071-0.279,0.071l-1.324,0.697l-2.092,1.604c-0.697,0.837-0.557,2.371,0.489,4.673l2.091,0.209h0.07v0.07
					l2.09,0.977l2.23-0.349c0.907-0.209,1.952-1.046,3.277-2.65h0.07l0.139-0.14l0.976-0.279l-0.279-2.929v-0.14l1.255-1.814v-0.069
					h0.069l0.977-0.767c0.139-0.837,0.069-1.605-0.28-2.233c-0.278-0.557-0.627-0.767-0.976-0.767l0.139,1.045l-1.882-0.348
					l-0.836,0.487H184.302"/>
			</defs>
			<clipPath id="SVGID_66_">
				<use xlink:href="#SVGID_65_"  overflow="visible"/>
			</clipPath>
			<rect x="173.086" y="219.422" clip-path="url(#SVGID_66_)" fill="#E4E4E3" width="23.951" height="22.136"/>
		</g>
	</g>
</g>
</svg>
